<?xml version="1.0" standalone="no"?>
<!DOCTYPE svg PUBLIC "-//W3C//DTD SVG 20010904//EN"
 "http://www.w3.org/TR/2001/REC-SVG-20010904/DTD/svg10.dtd">
<svg version="1.0" xmlns="http://www.w3.org/2000/svg"
 width="826.000000pt" height="1169.000000pt" viewBox="0 0 826.000000 1169.000000"
 preserveAspectRatio="xMidYMid meet">
<metadata>
Created by potrace 1.16, written by Peter Selinger 2001-2019
</metadata>
<g transform="translate(0.000000,1169.000000) scale(0.100000,-0.100000)"
fill="#000000" stroke="none">
<path d="M2916 10409 c-55 -5 -104 -13 -110 -18 -6 -5 -33 -12 -61 -15 -51 -7
-142 -35 -205 -62 -19 -9 -44 -19 -55 -24 -83 -35 -160 -77 -215 -116 -67 -48
-250 -226 -250 -244 0 -5 -13 -23 -30 -40 -16 -17 -32 -41 -36 -54 -3 -14 -12
-27 -20 -30 -8 -3 -14 -12 -14 -21 0 -8 -4 -15 -10 -15 -5 0 -10 -7 -10 -15 0
-9 -6 -18 -14 -21 -8 -3 -18 -19 -21 -35 -4 -16 -10 -29 -14 -29 -4 0 -13 -18
-20 -40 -6 -22 -16 -40 -20 -40 -5 0 -11 -18 -15 -40 -3 -22 -10 -40 -15 -40
-5 0 -12 -17 -16 -37 -4 -21 -10 -40 -14 -43 -11 -9 -52 -143 -58 -192 -3 -27
-9 -48 -13 -48 -5 0 -11 -33 -15 -72 -4 -40 -11 -78 -15 -83 -8 -9 -32 -311
-33 -405 0 -19 3 -101 8 -182 l8 -147 -27 -7 c-51 -12 -90 -66 -98 -134 -2
-18 -12 -27 -35 -34 -18 -5 -33 -12 -33 -17 0 -4 -14 -10 -30 -14 -17 -4 -30
-10 -30 -14 0 -4 -16 -13 -35 -20 -19 -7 -35 -17 -35 -22 0 -5 -7 -9 -15 -9
-9 0 -18 -7 -21 -15 -4 -8 -12 -15 -20 -15 -7 0 -17 -6 -21 -13 -4 -7 -23 -19
-42 -27 -30 -12 -47 -25 -112 -85 -9 -8 -20 -15 -26 -15 -17 0 -263 -229 -263
-246 0 -3 -15 -21 -34 -38 -18 -18 -36 -42 -40 -53 -4 -12 -13 -24 -21 -27 -8
-3 -15 -11 -15 -17 0 -7 -6 -17 -14 -23 -34 -27 -98 -255 -95 -340 1 -21 4
-14 10 24 5 30 13 57 18 60 5 3 14 24 21 48 7 23 17 42 21 42 4 0 10 14 14 30
4 17 11 30 16 30 5 0 9 7 9 15 0 9 7 18 15 21 8 4 15 12 15 20 0 7 6 17 13 21
7 4 18 20 24 36 7 15 17 27 23 27 5 0 10 5 10 11 0 7 15 27 32 44 18 18 42 45
53 60 26 37 117 125 128 125 3 0 29 23 57 50 46 45 70 60 70 45 0 -3 -16 -21
-35 -39 -19 -19 -35 -38 -35 -43 0 -5 -8 -16 -17 -25 -30 -28 -40 -43 -54 -81
-7 -20 -16 -37 -20 -37 -4 0 -10 -16 -13 -35 -4 -19 -11 -35 -16 -35 -5 0 -12
-21 -16 -47 -4 -27 -12 -51 -18 -55 -7 -5 -11 -66 -11 -188 0 -122 4 -183 11
-188 6 -4 14 -28 18 -54 4 -27 11 -48 16 -48 5 0 12 -20 16 -45 3 -25 10 -45
14 -45 4 0 13 -18 20 -40 7 -22 17 -40 21 -40 4 0 10 -13 14 -29 3 -16 13 -32
21 -35 8 -3 14 -12 14 -21 0 -8 4 -15 9 -15 5 0 12 -13 16 -29 3 -16 12 -32
19 -34 8 -3 16 -18 20 -32 4 -15 12 -33 19 -41 29 -32 37 -44 37 -52 0 -5 9
-20 20 -33 11 -13 23 -28 28 -34 4 -5 15 -25 22 -42 8 -18 18 -33 22 -33 5 0
8 -7 8 -15 0 -9 7 -18 15 -21 8 -4 15 -12 15 -19 0 -6 9 -22 20 -35 11 -13 23
-34 26 -46 3 -12 12 -25 20 -28 8 -3 14 -12 14 -20 0 -7 7 -16 15 -20 8 -3 15
-12 15 -21 0 -8 4 -15 10 -15 5 0 12 -11 16 -25 3 -14 10 -25 14 -25 4 0 13
-15 21 -32 7 -18 19 -37 26 -41 7 -4 13 -14 13 -21 0 -8 7 -16 15 -20 8 -3 15
-12 15 -21 0 -8 4 -15 10 -15 5 0 12 -11 16 -25 3 -14 10 -25 14 -25 4 0 14
-15 21 -32 7 -18 19 -39 26 -46 7 -7 13 -20 13 -28 0 -8 5 -14 10 -14 6 0 10
-6 10 -13 0 -8 9 -24 20 -37 11 -12 23 -39 26 -59 4 -19 13 -42 21 -49 7 -7
13 -20 13 -28 0 -8 5 -14 10 -14 6 0 10 -11 10 -24 0 -14 6 -31 14 -39 8 -7
17 -39 21 -70 4 -32 11 -57 16 -57 5 0 9 -29 9 -65 0 -36 -4 -65 -9 -65 -4 0
-11 -23 -14 -52 -4 -28 -11 -54 -16 -57 -5 -4 -13 -19 -16 -34 -4 -15 -11 -27
-16 -27 -5 0 -9 -5 -9 -11 0 -14 -55 -69 -69 -69 -6 0 -11 -4 -11 -10 0 -5
-11 -10 -24 -10 -14 0 -31 -6 -38 -13 -7 -7 -41 -19 -75 -27 -35 -7 -63 -16
-63 -20 0 -5 -27 -11 -60 -15 -33 -4 -60 -11 -60 -15 0 -4 -25 -11 -55 -15
-30 -3 -55 -11 -55 -16 0 -5 -17 -9 -37 -9 -21 -1 -58 -5 -82 -9 l-43 -9 28
24 c16 13 39 32 51 42 12 9 22 23 23 30 0 7 6 15 14 18 8 3 18 19 21 35 4 16
11 29 15 29 5 0 15 27 22 60 6 33 15 60 19 60 10 0 22 154 14 189 -14 66 -45
21 -45 -65 0 -19 -4 -34 -9 -34 -4 0 -11 -23 -14 -52 -4 -28 -11 -54 -15 -57
-5 -3 -13 -21 -17 -38 -3 -18 -10 -33 -15 -33 -5 0 -11 -13 -15 -29 -3 -16
-13 -32 -21 -35 -8 -3 -14 -11 -14 -18 0 -15 -35 -48 -50 -48 -6 0 -13 -6 -16
-14 -3 -8 -19 -18 -35 -21 -16 -4 -29 -10 -29 -15 0 -4 -31 -14 -70 -21 -63
-11 -70 -14 -70 -36 0 -23 2 -23 105 -23 58 0 105 4 105 9 0 4 48 11 107 15
59 4 110 11 113 15 3 5 33 12 68 16 59 7 64 6 69 -14 3 -12 9 -21 13 -21 5 0
11 -14 15 -30 4 -17 10 -30 14 -30 4 0 13 -16 21 -35 8 -19 17 -35 21 -35 4 0
10 -14 14 -30 4 -17 11 -30 16 -30 5 0 9 -7 9 -15 0 -9 6 -18 14 -21 8 -3 18
-18 21 -34 3 -16 12 -31 20 -33 7 -3 16 -19 20 -36 4 -17 11 -31 16 -31 5 0
13 -8 16 -17 4 -10 12 -23 17 -30 23 -27 32 -39 43 -65 15 -33 33 -37 33 -8 0
11 -4 20 -9 20 -5 0 -12 14 -16 31 -4 17 -13 33 -20 36 -8 2 -17 17 -20 33 -3
16 -13 31 -21 34 -8 3 -14 12 -14 21 0 8 -4 15 -9 15 -5 0 -12 14 -16 31 -4
17 -13 33 -20 36 -8 2 -17 18 -20 34 -4 16 -11 29 -16 29 -5 0 -9 7 -9 15 0 9
-6 18 -14 21 -8 3 -18 19 -21 35 -4 16 -10 29 -14 29 -4 0 -13 16 -21 35 -8
19 -17 35 -21 35 -4 0 -9 9 -12 20 -3 13 0 20 8 20 7 0 15 6 18 13 5 15 47
-29 47 -50 0 -7 5 -13 10 -13 6 0 10 -6 10 -13 0 -12 9 -25 49 -74 6 -6 13
-23 17 -38 4 -15 13 -29 20 -32 8 -3 14 -12 14 -19 0 -8 6 -17 14 -20 8 -3 17
-16 20 -30 4 -13 11 -24 16 -24 6 0 15 -11 20 -25 5 -14 14 -25 20 -25 5 0 10
-7 10 -15 0 -9 7 -18 15 -21 8 -4 15 -12 15 -20 0 -8 9 -22 20 -31 11 -10 20
-23 20 -30 0 -7 5 -13 10 -13 6 0 16 -12 23 -27 6 -16 17 -32 24 -36 7 -4 13
-12 13 -18 0 -5 10 -20 23 -32 13 -12 26 -30 30 -39 3 -10 10 -18 15 -18 5 0
15 -13 22 -30 7 -16 16 -30 21 -30 5 0 9 -7 9 -15 0 -9 7 -18 15 -21 8 -4 15
-12 15 -20 0 -7 6 -17 13 -21 7 -4 19 -24 27 -43 8 -19 20 -41 27 -48 7 -7 13
-20 13 -28 0 -8 4 -14 9 -14 5 0 12 -13 16 -30 4 -16 10 -30 15 -30 4 0 11
-16 14 -35 4 -19 11 -35 16 -35 4 0 14 -31 21 -70 7 -38 16 -70 21 -70 4 0 8
-56 8 -125 0 -69 -4 -125 -9 -125 -5 0 -12 -16 -15 -36 -4 -19 -14 -38 -22
-41 -7 -3 -14 -10 -14 -15 0 -6 -32 -42 -70 -80 l-71 -70 7 43 c4 24 12 47 18
51 15 10 15 356 0 366 -6 4 -14 29 -18 56 -3 28 -10 52 -15 55 -5 4 -12 25
-16 49 -4 23 -10 42 -14 42 -4 0 -13 23 -20 50 -7 28 -17 50 -22 50 -5 0 -9 6
-9 14 0 8 -6 21 -14 28 -7 8 -17 25 -21 38 -12 37 -28 50 -43 33 -8 -7 -8 -13
-2 -13 5 0 10 -11 10 -24 0 -14 6 -31 13 -38 8 -7 17 -30 21 -51 4 -20 11 -37
16 -37 5 0 12 -20 16 -45 3 -25 9 -45 13 -45 8 0 31 -113 31 -154 0 -14 5 -26
10 -26 6 0 10 -58 10 -155 0 -85 -4 -155 -8 -155 -4 0 -13 -37 -20 -82 -6 -45
-16 -84 -21 -87 -5 -4 -13 -19 -16 -34 -4 -15 -11 -27 -16 -27 -5 0 -9 -7 -9
-15 0 -9 -7 -18 -15 -21 -8 -4 -15 -13 -15 -20 0 -8 -7 -17 -15 -20 -8 -3 -17
-16 -21 -27 -7 -22 -61 -77 -75 -77 -5 0 -22 -13 -38 -29 -16 -16 -44 -32 -60
-36 -17 -4 -31 -11 -31 -15 0 -5 -16 -12 -35 -16 -19 -3 -35 -10 -35 -14 0 -4
-21 -11 -47 -15 -27 -4 -50 -11 -53 -15 -7 -11 -249 -30 -349 -29 l-76 2 58 9
c31 6 57 14 57 18 0 4 20 11 45 14 25 4 45 11 45 16 0 5 13 11 30 15 16 4 30
10 30 15 0 4 9 10 20 13 13 3 18 10 14 21 -7 17 -24 22 -24 7 0 -5 -22 -15
-50 -22 -27 -7 -50 -16 -50 -20 0 -4 -19 -10 -42 -14 -24 -4 -46 -12 -50 -18
-4 -6 -55 -12 -125 -13 -65 -2 -108 0 -95 2 12 3 22 9 22 14 0 5 14 11 30 15
16 4 30 11 30 16 0 5 6 9 13 9 18 0 57 38 57 55 0 10 -10 15 -30 15 -16 0 -30
-4 -30 -10 0 -5 -9 -10 -20 -10 -11 0 -20 4 -20 10 0 5 -16 12 -35 16 -19 3
-35 9 -35 13 0 3 -15 13 -32 21 -35 15 -98 71 -98 86 0 5 -9 17 -20 27 -11 9
-20 24 -20 32 0 8 -4 15 -10 15 -5 0 -10 6 -10 14 0 8 -6 21 -14 28 -7 8 -17
24 -20 36 -7 22 -30 30 -40 14 -10 -17 39 -162 55 -162 4 0 10 -8 14 -19 3
-10 23 -36 45 -57 35 -35 67 -55 154 -95 l28 -13 -48 -14 c-89 -25 -162 -35
-208 -28 -25 4 -46 11 -46 17 0 5 -7 9 -15 9 -29 0 -15 -31 23 -48 20 -9 39
-20 42 -23 3 -3 38 -11 77 -19 40 -7 73 -16 73 -20 0 -34 494 -48 630 -18 121
26 200 50 200 59 0 5 9 9 19 9 11 0 26 6 33 14 8 7 24 17 37 21 13 4 31 14 40
23 10 10 34 30 54 47 20 16 37 36 37 43 0 7 7 15 15 18 8 3 24 21 36 40 11 19
25 34 30 34 5 0 33 -18 62 -40 29 -22 61 -47 72 -55 10 -8 25 -15 32 -15 7 0
13 -4 13 -10 0 -5 21 -19 48 -31 75 -34 75 -35 42 -84 -17 -24 -30 -48 -30
-53 0 -6 -7 -12 -15 -16 -8 -3 -15 -10 -15 -16 0 -6 -5 -16 -10 -23 -41 -48
-50 -62 -50 -74 0 -7 -5 -13 -10 -13 -6 0 -15 -11 -20 -25 -5 -14 -14 -25 -19
-25 -5 0 -12 -13 -16 -29 -3 -16 -13 -32 -21 -35 -8 -3 -14 -12 -14 -21 0 -8
-4 -15 -8 -15 -4 0 -14 -16 -21 -35 -7 -19 -17 -35 -22 -35 -5 0 -9 -6 -9 -14
0 -8 -6 -21 -14 -28 -7 -8 -17 -24 -20 -36 -4 -12 -11 -22 -16 -22 -5 0 -11
-14 -15 -30 -4 -17 -10 -30 -14 -30 -4 0 -13 -22 -20 -50 -7 -27 -16 -50 -21
-50 -4 0 -11 -16 -14 -35 -4 -19 -11 -35 -16 -35 -6 0 -10 -9 -10 -21 0 -11
-5 -30 -11 -41 -19 -36 -57 -189 -78 -318 -34 -207 -54 -571 -32 -584 5 -3 12
-78 16 -166 4 -88 11 -160 15 -160 4 0 10 -60 12 -134 l3 -134 37 -36 c20 -20
41 -36 46 -36 5 0 16 -8 24 -17 13 -14 17 -52 21 -173 3 -85 6 -156 6 -157 1
-2 8 -3 16 -3 13 0 15 22 15 140 0 87 -4 140 -10 140 -5 0 -10 5 -10 10 0 6
11 10 25 10 14 0 25 -4 25 -9 0 -5 14 -12 30 -16 16 -4 30 -10 30 -15 0 -4 18
-11 40 -15 22 -4 40 -10 40 -14 0 -8 81 -31 110 -31 11 0 20 -4 20 -10 0 -5
23 -12 50 -16 28 -4 50 -11 50 -16 0 -5 5 -14 10 -21 44 -51 60 -73 60 -79 0
-4 10 -10 22 -14 13 -4 27 -13 33 -20 25 -34 275 -26 297 9 5 7 8 3 8 -10 0
-23 25 -32 32 -12 2 7 12 7 31 0 38 -15 460 -14 511 0 22 6 46 17 53 25 8 8
21 14 29 14 8 0 14 5 14 10 0 6 7 10 15 10 9 0 18 7 21 15 4 8 12 15 19 15 7
0 23 11 36 25 13 13 28 25 32 25 5 0 35 27 67 59 56 57 62 60 120 67 l60 7 0
-37 c0 -20 5 -36 10 -36 6 0 10 -20 10 -44 0 -23 3 -71 6 -105 6 -50 10 -61
25 -61 14 0 19 7 19 25 0 16 6 25 15 25 8 0 15 4 15 9 0 4 36 12 80 15 44 4
80 11 80 15 0 4 37 13 82 20 46 7 85 16 88 21 3 4 24 11 48 15 l43 7 -7 -64
c-4 -34 -11 -66 -16 -69 -5 -3 -3 -9 5 -12 21 -8 27 1 27 39 0 18 4 36 10 39
6 3 10 23 10 43 0 40 27 73 68 86 12 4 22 11 22 15 0 4 16 24 35 44 42 43 85
121 85 153 0 13 5 24 10 24 6 0 10 7 10 15 0 8 9 15 20 15 11 0 20 4 20 9 0 5
12 12 28 16 15 4 34 14 44 23 9 9 39 39 67 66 28 27 51 55 51 63 0 7 6 16 14
19 8 3 17 16 20 30 6 22 39 64 51 64 2 0 7 -17 11 -37 4 -21 13 -44 21 -51 7
-7 13 -20 13 -27 0 -15 41 -59 84 -90 16 -11 33 -25 40 -30 22 -21 99 -36 166
-34 68 2 100 -11 100 -41 0 -6 7 -13 15 -16 8 -4 15 -11 15 -18 0 -13 110
-116 125 -116 5 0 24 -7 40 -16 36 -20 192 -26 203 -8 4 6 21 14 38 18 39 9
140 94 200 168 20 25 94 157 94 167 0 6 4 11 9 11 5 0 12 12 16 27 3 15 12 31
18 35 11 7 47 -32 47 -51 0 -7 7 -14 15 -17 8 -4 15 -12 15 -19 0 -15 14 -31
54 -60 16 -11 33 -25 40 -31 6 -6 29 -17 51 -24 22 -7 46 -17 54 -23 15 -13
192 -12 200 1 3 5 27 14 54 22 26 7 47 17 47 21 0 5 6 9 14 9 8 0 22 7 30 16
15 14 17 14 32 0 8 -9 21 -16 29 -16 7 0 15 -6 18 -14 3 -8 19 -17 36 -21 17
-4 31 -10 31 -15 0 -4 19 -11 43 -15 23 -4 48 -12 56 -18 18 -15 223 -14 253
1 13 6 40 13 61 17 20 3 37 9 37 14 0 4 18 14 40 21 22 7 40 16 40 21 0 4 11
10 25 13 14 4 25 11 25 16 0 6 11 15 25 20 14 5 25 14 25 19 0 5 11 12 25 15
14 4 25 11 25 16 0 6 7 10 15 10 7 0 18 6 22 13 4 6 21 19 37 27 35 17 249
226 293 285 75 101 116 195 84 195 -4 0 -11 19 -14 41 -3 23 -10 45 -15 48 -5
3 -13 17 -17 31 -11 37 -80 100 -121 111 -50 14 -93 -3 -131 -54 -63 -84 -256
-287 -272 -287 -4 0 -22 -16 -41 -35 -19 -19 -41 -35 -48 -35 -7 0 -15 -7 -18
-15 -4 -8 -12 -15 -20 -15 -8 0 -22 -9 -31 -20 -10 -11 -21 -20 -25 -20 -5 0
-17 -9 -28 -20 -11 -11 -27 -20 -35 -20 -8 0 -15 -4 -15 -10 0 -5 -6 -10 -13
-10 -7 0 -20 -9 -30 -20 -16 -19 -37 -27 -37 -14 0 3 31 36 70 73 38 38 70 72
70 76 0 4 16 23 35 42 19 19 35 40 35 47 0 8 7 16 15 20 8 3 15 12 15 21 0 8
4 15 9 15 6 0 16 11 23 24 7 13 30 54 52 91 21 36 43 85 49 108 6 23 15 45 20
48 5 4 12 40 15 81 3 59 1 77 -11 90 -9 9 -19 27 -22 40 -7 29 -81 102 -139
138 -31 19 -57 25 -121 28 -90 5 -142 -7 -183 -42 -56 -46 -182 -175 -182
-185 0 -6 -9 -3 -20 6 -11 10 -20 22 -20 27 0 5 51 59 113 120 114 113 187
196 187 214 0 6 8 18 18 28 23 24 22 155 -2 199 -9 17 -16 34 -16 39 0 5 -26
33 -57 63 -47 46 -65 56 -106 63 -69 10 -197 -22 -197 -50 0 -6 -6 -10 -13
-10 -15 0 -107 -85 -107 -98 0 -5 -8 -17 -17 -28 -77 -87 -119 -247 -94 -358
7 -31 17 -56 22 -56 16 0 10 -19 -16 -45 -14 -14 -28 -25 -30 -25 -8 0 -45
-40 -45 -48 0 -5 -11 -14 -24 -21 -13 -7 -30 -25 -37 -40 -15 -28 -18 -32 -49
-70 -11 -13 -20 -30 -20 -38 0 -7 -4 -13 -10 -13 -5 0 -10 -6 -10 -14 0 -8 -6
-21 -13 -28 -8 -7 -20 -34 -29 -58 -18 -55 -52 -68 -62 -23 -9 45 -41 74 -86
80 -30 4 -40 10 -40 24 0 11 5 19 10 19 6 0 10 6 10 13 0 8 9 25 20 38 31 38
34 42 50 74 8 17 17 32 20 35 9 9 30 45 61 105 37 73 62 118 69 125 12 12 50
99 50 114 0 9 4 16 10 16 5 0 15 18 21 40 7 22 16 40 20 40 4 0 10 13 14 30 4
16 11 30 16 30 5 0 9 6 9 13 1 6 9 30 20 52 11 22 19 46 20 53 0 6 4 12 8 12
5 0 14 25 21 55 7 30 16 55 21 55 5 0 12 20 16 45 3 25 10 45 15 45 5 0 9 26
9 59 0 56 -19 120 -43 147 -7 7 -23 31 -37 53 -13 23 -30 41 -37 41 -7 0 -22
9 -33 20 -11 11 -31 22 -45 26 -14 3 -28 10 -31 15 -7 12 -134 11 -134 -1 0
-5 -9 -10 -20 -10 -12 0 -37 -16 -57 -35 -19 -19 -43 -37 -52 -40 -9 -4 -34
-29 -56 -56 -22 -27 -48 -57 -57 -66 -10 -10 -18 -21 -18 -25 0 -4 -15 -23
-32 -41 -40 -41 -68 -78 -68 -89 0 -4 -12 -21 -27 -37 -42 -45 -53 -59 -53
-68 0 -4 -11 -21 -25 -37 -14 -16 -25 -35 -25 -43 0 -7 -4 -13 -10 -13 -5 0
-12 -11 -16 -24 -3 -14 -12 -27 -19 -30 -7 -2 -16 -18 -20 -35 -4 -17 -11 -31
-16 -31 -5 0 -9 -7 -9 -15 0 -9 -6 -18 -14 -21 -8 -3 -18 -19 -21 -35 -4 -16
-10 -29 -15 -29 -4 0 -11 -11 -14 -25 -4 -14 -10 -25 -15 -25 -5 0 -14 -20
-21 -45 -7 -25 -17 -45 -21 -45 -5 0 -9 -5 -9 -11 0 -5 -9 -31 -21 -57 -11
-26 -27 -63 -35 -82 -9 -19 -19 -44 -24 -55 -5 -11 -21 -59 -35 -107 -15 -49
-31 -88 -37 -88 -6 0 -28 16 -49 35 -22 19 -46 35 -55 35 -13 0 -15 6 -9 27 3
15 11 30 16 34 13 8 15 119 2 127 -5 4 -13 19 -16 33 -4 14 -19 32 -34 40 -16
8 -31 18 -35 24 -4 6 -53 10 -110 10 -112 0 -110 1 -177 -66 -62 -63 -81 -96
-81 -145 0 -15 -6 -24 -15 -24 -8 0 -15 6 -15 13 0 17 -85 97 -104 97 -9 0
-16 4 -16 9 0 6 -20 13 -44 16 -38 6 -46 12 -55 38 -6 16 -11 41 -11 54 0 13
-4 31 -10 41 -5 9 -13 42 -19 72 -5 30 -17 84 -26 120 -9 36 -23 97 -32 135
-8 39 -19 72 -23 75 -5 3 -11 22 -15 43 -4 20 -11 39 -15 42 -5 3 -11 23 -15
45 -4 22 -11 40 -15 40 -5 0 -12 20 -16 45 -3 25 -10 45 -14 45 -4 0 -10 13
-13 30 -4 16 -16 50 -27 74 -11 25 -20 50 -20 55 0 6 -4 11 -10 11 -5 0 -10 6
-10 13 0 20 -17 40 -28 33 -9 -5 1 -40 41 -146 16 -44 46 -139 52 -170 4 -19
11 -39 15 -45 4 -5 11 -29 15 -52 4 -24 10 -45 15 -48 4 -3 11 -28 15 -55 4
-28 11 -50 15 -50 5 0 12 -25 15 -55 4 -30 11 -55 15 -55 4 0 13 -45 20 -100
7 -55 17 -100 21 -100 4 0 9 -25 11 -55 2 -46 0 -55 -14 -55 -9 0 -19 -4 -22
-9 -3 -4 -33 -11 -67 -14 -34 -3 -65 -9 -68 -14 -3 -5 -28 -14 -56 -21 -27 -7
-57 -20 -66 -28 -8 -8 -21 -14 -27 -14 -7 0 -12 -4 -12 -10 0 -5 -7 -10 -15
-10 -8 0 -23 -9 -32 -20 -10 -11 -21 -20 -26 -20 -13 0 -177 -166 -177 -179 0
-6 -11 -17 -25 -23 -23 -10 -29 -8 -56 22 -62 67 -63 73 -27 107 18 17 40 39
49 49 9 11 37 37 62 60 25 23 50 52 57 64 7 13 23 33 36 45 13 12 24 28 24 34
0 6 7 14 15 17 8 4 15 12 15 20 0 7 6 17 13 21 6 4 19 22 27 38 8 17 17 32 20
35 8 7 50 96 50 104 0 4 6 13 13 20 6 7 23 46 36 87 13 41 27 82 32 91 12 24
11 155 -1 163 -5 3 -10 17 -10 31 0 24 -46 134 -60 144 -4 3 -10 15 -14 28 -4
12 -12 22 -17 22 -5 0 -9 7 -9 15 0 8 -9 19 -20 25 -11 6 -20 17 -20 25 0 8
-9 23 -21 34 -28 26 -18 38 36 47 25 3 45 10 45 14 0 4 16 11 35 14 19 4 35
11 35 15 0 5 16 12 35 15 19 4 35 11 35 15 0 5 20 14 45 21 25 7 45 16 45 20
0 4 12 11 26 14 27 7 29 9 78 53 l30 26 -18 106 c-10 58 -22 111 -26 116 -5 6
-14 32 -20 58 -7 26 -16 47 -20 47 -5 0 -11 13 -15 30 -4 16 -11 30 -16 30 -5
0 -9 7 -9 15 0 9 -6 18 -14 21 -8 3 -17 16 -20 30 -4 13 -15 33 -26 44 -11 11
-20 27 -20 35 0 8 -4 15 -8 15 -17 0 -51 41 -46 54 3 7 22 16 43 20 21 3 44
13 51 21 7 8 18 15 25 15 12 0 116 105 148 150 9 14 28 40 42 59 14 19 25 41
25 48 0 7 4 13 8 13 4 0 19 25 32 55 13 30 28 55 32 55 4 0 10 17 14 38 3 20
12 46 19 57 7 11 16 35 20 53 4 18 13 45 21 60 8 15 14 35 14 45 0 28 29 77
45 77 8 0 15 5 15 10 0 6 7 10 15 10 7 0 19 8 25 17 8 13 13 14 16 6 6 -15 40
-17 48 -4 3 4 26 14 51 21 25 7 45 17 45 21 0 5 7 9 15 9 9 0 18 7 21 15 4 8
12 15 19 15 15 0 91 71 134 128 18 23 37 42 43 42 16 0 92 81 106 113 7 15 12
43 12 62 l0 35 50 0 c28 0 50 5 50 10 0 6 9 10 19 10 24 0 51 10 51 19 0 4
-16 13 -35 20 -30 11 -35 16 -29 34 4 12 12 25 17 29 7 4 13 51 15 107 4 95 5
100 28 105 26 7 64 40 64 56 0 6 -10 10 -22 10 -38 0 -68 12 -68 25 0 7 5 15
11 17 6 2 14 36 16 75 5 62 3 75 -16 101 -11 17 -21 33 -21 37 0 3 -6 13 -12
20 -43 48 -46 55 -23 55 8 0 15 9 15 20 0 11 5 20 10 20 6 0 10 4 10 9 0 5
-19 13 -42 17 -24 4 -35 9 -25 12 9 2 17 8 17 13 0 5 7 9 15 9 20 0 19 26 -1
34 -9 3 -27 6 -40 6 -13 0 -24 5 -24 10 0 6 -10 10 -23 10 -27 0 -67 34 -67
56 0 8 -7 17 -15 20 -8 4 -15 12 -15 19 0 8 -9 17 -20 20 -11 3 -20 11 -20 16
0 5 -5 9 -11 9 -6 0 -25 6 -42 14 -18 8 -42 16 -54 18 -21 3 -21 4 -6 43 18
49 24 252 7 263 -6 4 -15 22 -19 40 -3 17 -11 32 -16 32 -5 0 -9 5 -9 11 0 12
-120 190 -150 224 -10 11 -35 38 -54 59 -20 22 -36 44 -36 49 0 5 -7 15 -16
22 -11 7 -18 31 -21 66 -4 52 -30 119 -45 119 -12 0 -10 -38 2 -45 25 -15 -3
-169 -37 -203 -7 -7 -13 -18 -13 -24 0 -16 -56 -67 -85 -78 -27 -10 -85 -3
-85 11 0 4 10 19 23 33 45 49 49 56 33 56 -16 0 -56 -37 -56 -52 0 -14 -71 -9
-86 6 -7 8 -19 16 -26 18 -7 3 -12 20 -12 40 0 26 8 43 32 66 36 35 20 44 -21
12 -34 -27 -37 -26 -37 15 0 19 4 35 10 35 5 0 12 10 15 23 4 12 22 33 41 47
19 14 41 31 49 38 8 7 28 15 44 18 17 4 31 10 31 15 0 5 28 9 63 9 35 0 68 5
74 11 7 7 54 10 132 7 67 -1 121 0 121 5 0 4 -10 17 -22 29 l-21 21 50 24 c28
13 56 35 63 48 8 16 22 25 37 25 16 0 23 6 23 20 0 11 6 23 14 26 8 3 18 19
21 35 4 16 13 29 20 29 7 0 15 7 19 15 3 8 12 15 21 15 31 0 15 29 -20 36 -39
7 -44 20 -17 40 16 12 15 14 -8 36 l-25 23 23 3 c20 3 27 13 23 35 0 4 12 7
28 7 17 0 31 6 35 16 10 25 7 34 -9 34 -16 0 -15 3 23 45 6 7 12 18 12 24 0 6
7 11 15 11 8 0 15 4 15 8 0 4 15 24 33 43 50 56 67 78 80 107 6 15 16 30 22
34 18 13 19 160 1 203 -24 56 -35 32 -25 -54 9 -78 -1 -152 -24 -176 -6 -7
-19 -23 -27 -35 -56 -83 -110 -143 -165 -185 -22 -16 -51 -42 -63 -57 -13 -16
-28 -28 -33 -28 -5 0 -9 25 -9 55 0 30 5 55 10 55 6 0 10 22 10 49 0 31 6 55
15 65 8 8 15 19 15 25 0 5 8 15 18 21 16 10 16 10 0 20 -10 6 -18 15 -18 20 0
12 -32 50 -42 50 -13 0 -9 -50 5 -51 6 0 3 -4 -9 -9 -26 -10 -34 -59 -34 -219
0 -88 4 -122 15 -137 8 -10 15 -27 15 -36 0 -10 5 -18 10 -18 6 0 10 -8 10
-18 0 -10 7 -27 15 -38 21 -27 19 -30 -25 -43 -32 -9 -40 -17 -40 -35 0 -20
-7 -25 -37 -31 -21 -4 -44 -11 -50 -17 -18 -15 -16 -36 5 -41 13 -4 11 -5 -5
-6 -13 0 -23 -5 -23 -10 0 -34 -127 -65 -319 -78 -63 -5 -287 23 -306 37 -5 5
-38 14 -72 20 -35 7 -63 16 -63 21 0 4 -13 10 -30 14 -16 4 -30 10 -30 15 0 5
-12 11 -27 15 -31 7 -73 38 -73 54 0 6 -26 30 -57 53 -79 58 -223 206 -223
228 0 4 -9 19 -20 32 -33 42 -42 76 -24 90 28 24 279 274 303 304 54 66 101
132 101 142 0 7 4 12 10 12 5 0 12 11 16 25 3 14 9 25 13 25 12 0 79 140 92
190 6 25 13 62 16 83 6 43 28 50 37 11 5 -19 12 -25 25 -21 20 5 35 -16 45
-65 4 -17 13 -28 22 -28 14 0 15 8 9 48 -4 26 -11 48 -16 50 -14 6 16 30 46
38 14 4 29 13 32 20 10 26 33 15 33 -16 0 -16 -4 -30 -10 -30 -5 0 -10 -22
-10 -50 0 -43 -3 -50 -19 -50 -29 0 -51 -11 -51 -24 0 -6 -10 -12 -21 -13 -44
-4 -42 -21 2 -33 24 -7 47 -16 50 -22 3 -5 17 -10 31 -11 15 -1 38 -14 52 -29
14 -16 31 -28 39 -28 7 0 28 -11 47 -25 19 -14 40 -25 47 -25 7 0 13 -4 13 -8
0 -9 83 -47 124 -58 14 -3 26 -10 26 -14 0 -5 18 -11 40 -15 22 -4 40 -11 40
-16 0 -5 8 -9 17 -9 24 0 83 -23 83 -32 0 -4 16 -8 35 -8 27 0 35 4 35 18 0 9
-9 23 -21 30 -20 13 -20 13 7 35 34 26 131 35 208 19 138 -30 159 -20 39 18
-43 13 -80 27 -83 30 -3 4 -13 9 -23 13 -14 5 -17 14 -12 41 4 19 4 48 1 64
-6 26 -11 29 -51 30 -24 0 -49 3 -54 7 -14 8 -14 35 -1 35 17 0 11 64 -10 95
-10 16 -38 39 -60 51 -23 12 -37 24 -32 26 5 1 12 22 16 46 5 35 3 44 -11 49
-9 4 -19 1 -21 -5 -2 -7 -9 -12 -15 -12 -7 0 -25 -12 -41 -26 -18 -17 -31 -23
-35 -16 -24 39 -116 34 -157 -9 -34 -35 -39 -36 -67 -5 -13 13 -36 26 -52 28
l-30 3 30 27 c27 24 48 58 85 139 12 25 9 100 -5 197 -4 25 -3 42 3 42 5 0 15
21 22 48 7 26 18 53 23 60 5 7 12 65 14 130 4 106 2 124 -21 195 -14 43 -26
84 -26 92 0 8 -4 15 -10 15 -5 0 -10 6 -10 12 0 18 -71 158 -80 158 -4 0 -11
11 -14 24 -3 14 -12 31 -19 38 -43 46 -56 77 -50 114 3 22 10 45 16 52 7 9 8
16 0 20 -5 4 -13 24 -17 45 -4 20 -10 37 -14 37 -4 0 -12 10 -17 23 -11 25
-83 63 -137 73 -22 4 -38 12 -38 20 0 8 -4 14 -10 14 -5 0 -10 5 -10 10 0 48
-232 300 -277 300 -7 0 -13 4 -13 9 0 14 -155 89 -249 121 -78 26 -115 35
-251 61 -71 13 -375 19 -484 8z m194 -58 c0 -4 -37 -11 -82 -15 -45 -4 -85
-11 -88 -16 -3 -5 -25 -12 -48 -16 -23 -4 -42 -10 -42 -13 0 -4 -22 -13 -50
-20 -27 -7 -50 -17 -50 -21 0 -5 -13 -11 -30 -15 -16 -4 -30 -11 -30 -16 0 -5
-11 -11 -25 -15 -14 -3 -25 -9 -25 -13 0 -4 -12 -14 -27 -22 -16 -8 -33 -18
-40 -24 -58 -48 -98 -83 -112 -99 -32 -37 -84 -86 -91 -86 -5 0 -11 -11 -14
-25 -4 -14 -11 -25 -16 -25 -6 0 -10 -6 -10 -14 0 -8 -9 -21 -19 -28 -11 -8
-23 -26 -26 -40 -4 -15 -13 -29 -21 -32 -8 -3 -14 -12 -14 -21 0 -8 -4 -15 -9
-15 -5 0 -12 -13 -16 -30 -4 -16 -10 -30 -15 -30 -4 0 -13 -22 -20 -50 -7 -27
-16 -50 -20 -50 -5 0 -12 -20 -16 -45 -3 -25 -10 -45 -15 -45 -4 0 -11 -22
-15 -50 -4 -27 -10 -50 -15 -50 -5 0 -9 -16 -9 -35 0 -43 18 -46 27 -5 3 17 9
30 13 30 4 0 10 23 14 50 4 28 10 50 15 50 4 0 14 25 21 55 7 30 17 55 21 55
4 0 10 14 14 30 4 17 10 30 15 30 5 0 11 14 15 30 4 17 10 30 15 30 5 0 11 14
15 30 4 17 11 30 16 30 5 0 14 11 19 25 5 14 14 25 20 25 5 0 10 7 10 15 0 9
7 18 15 21 8 4 15 12 15 19 0 7 16 30 35 51 19 21 49 56 67 76 18 21 38 37 44
38 6 0 20 11 32 25 12 14 28 25 36 25 8 0 16 7 20 15 3 8 12 15 21 15 8 0 15
4 15 9 0 5 16 15 35 22 19 7 35 16 35 20 0 4 14 10 30 14 17 4 30 11 30 15 0
5 16 12 35 16 19 3 35 10 35 14 0 4 34 13 75 21 41 7 75 16 75 20 0 4 41 11
90 15 50 3 90 10 90 15 0 5 70 9 155 9 85 0 155 -4 155 -9 0 -4 23 -11 52 -14
28 -4 54 -10 57 -15 3 -4 33 -13 65 -20 33 -6 62 -16 65 -21 4 -5 19 -13 34
-16 15 -4 27 -11 27 -15 0 -5 14 -11 30 -15 17 -4 30 -10 30 -13 0 -4 14 -14
32 -21 18 -8 42 -25 54 -38 12 -13 25 -23 29 -23 11 0 155 -146 155 -157 0 -5
9 -16 20 -26 11 -9 20 -23 20 -31 0 -8 6 -17 13 -19 7 -3 5 -6 -5 -6 -10 -1
-18 -7 -18 -15 0 -13 41 -26 86 -26 13 0 24 -4 24 -8 0 -5 19 -14 42 -21 22
-7 47 -19 55 -26 22 -22 38 -121 25 -150 -8 -18 -8 -33 0 -57 11 -31 17 -41
44 -71 6 -7 15 -23 18 -35 4 -12 11 -22 15 -22 4 0 14 -18 21 -40 7 -22 17
-40 21 -40 4 0 10 -13 14 -30 4 -16 10 -30 15 -30 4 0 11 -16 14 -35 4 -19 11
-35 16 -35 4 0 11 -19 15 -42 4 -24 13 -46 19 -50 16 -11 15 -310 -1 -316 -7
-2 -13 -17 -13 -33 0 -39 -26 -38 -35 1 -4 17 -11 30 -16 30 -5 0 -11 11 -15
25 -3 14 -10 25 -14 25 -5 0 -11 14 -15 31 -4 17 -13 33 -20 35 -7 3 -16 17
-20 31 -5 23 -12 33 -42 67 -6 7 -17 32 -24 54 -7 23 -15 42 -19 42 -4 0 -10
21 -13 47 -3 27 -11 50 -21 55 -9 5 -16 16 -16 23 0 8 -4 15 -10 15 -5 0 -12
16 -16 35 -3 19 -9 35 -13 35 -4 0 -13 29 -20 65 -7 36 -17 65 -21 65 -5 0
-12 20 -16 45 -4 30 -11 45 -21 45 -13 0 -14 -10 -8 -57 4 -32 11 -60 15 -63
4 -3 11 -26 15 -52 4 -27 11 -48 15 -48 4 0 13 -28 20 -62 8 -35 20 -69 27
-76 7 -7 13 -20 13 -28 0 -8 4 -14 10 -14 5 0 12 -16 16 -35 3 -19 10 -35 15
-35 5 0 9 -6 9 -13 0 -8 9 -24 19 -36 11 -13 23 -36 26 -52 4 -16 11 -29 16
-29 5 0 9 -7 9 -15 0 -9 7 -18 15 -21 8 -4 15 -12 15 -19 0 -8 6 -20 14 -27 7
-8 19 -30 27 -51 7 -20 16 -37 20 -37 3 0 9 -19 13 -42 4 -23 12 -46 19 -50 7
-4 13 -46 15 -116 3 -86 1 -112 -11 -123 -8 -8 -18 -25 -22 -38 -9 -28 -45
-71 -59 -71 -6 0 -3 5 6 10 9 6 19 24 23 40 4 17 11 30 16 30 5 0 9 43 9 95 0
52 -4 95 -8 95 -4 0 -14 27 -21 60 -8 33 -17 60 -21 60 -4 0 -11 11 -14 25 -4
14 -11 25 -16 25 -6 0 -10 6 -10 14 0 8 -6 21 -13 28 -7 7 -18 25 -24 41 -7
15 -17 27 -23 27 -5 0 -10 7 -10 15 0 9 -7 18 -15 21 -8 3 -17 15 -20 25 -4
11 -20 34 -36 52 -51 56 -57 65 -63 85 -4 11 -13 23 -21 26 -8 3 -15 12 -15
20 0 7 -7 16 -15 20 -8 3 -15 12 -15 21 0 8 -5 15 -11 15 -5 0 -15 14 -20 30
-6 17 -15 30 -20 30 -5 0 -9 7 -9 15 0 9 -6 18 -14 21 -8 3 -18 19 -21 35 -4
16 -10 29 -14 29 -4 0 -14 18 -21 40 -7 22 -17 40 -21 40 -4 0 -10 14 -14 30
-4 17 -11 30 -16 30 -18 0 -8 19 29 58 21 22 48 42 60 46 12 4 22 12 22 17 0
5 7 9 15 9 7 0 18 8 24 17 8 14 26 18 97 20 115 3 126 12 41 35 -37 10 -59 10
-104 0 -32 -7 -59 -16 -61 -22 -2 -5 -10 -10 -18 -10 -8 0 -17 -7 -20 -15 -4
-8 -13 -15 -20 -15 -8 0 -17 -7 -20 -15 -3 -8 -16 -17 -27 -21 -12 -4 -41 -26
-64 -50 -24 -24 -47 -44 -52 -44 -11 0 -121 -109 -121 -121 0 -12 -221 -229
-234 -229 -3 0 -28 -21 -55 -47 -27 -27 -62 -57 -77 -68 -15 -11 -33 -26 -40
-32 -7 -7 -18 -13 -24 -13 -6 0 -13 -7 -16 -15 -4 -8 -13 -15 -20 -15 -8 0
-17 -6 -20 -14 -3 -8 -18 -18 -34 -21 -16 -3 -38 -15 -51 -26 -12 -10 -28 -19
-36 -19 -7 0 -13 -4 -13 -9 0 -5 -13 -12 -30 -16 -16 -4 -30 -10 -30 -15 0 -4
-27 -13 -60 -21 -33 -7 -60 -16 -60 -20 0 -4 -18 -10 -40 -14 -22 -4 -40 -10
-40 -15 0 -4 -28 -11 -62 -15 -35 -4 -66 -12 -70 -19 -10 -16 -446 -16 -456 0
-4 6 -26 15 -49 19 -24 4 -43 11 -43 15 0 5 -13 11 -30 15 -17 4 -30 11 -30
16 0 5 -6 9 -12 9 -14 0 -48 27 -112 87 -34 31 -36 35 -15 30 13 -4 48 -10 77
-13 28 -4 52 -11 52 -15 0 -5 45 -9 100 -9 55 0 100 4 100 8 0 4 36 13 80 20
76 11 110 27 110 51 0 14 -57 14 -62 1 -2 -6 -47 -13 -101 -17 -53 -3 -97 -10
-97 -15 0 -13 -28 -9 -33 5 -4 9 -8 8 -16 -3 -7 -10 -11 -11 -11 -2 0 8 -16
12 -47 12 -61 0 -123 10 -123 20 0 5 32 11 70 15 39 4 70 11 70 15 0 4 20 13
45 19 25 6 45 15 45 20 0 5 13 12 29 16 15 3 34 17 41 30 7 14 20 25 28 25 17
0 262 250 262 268 0 4 13 19 30 32 16 14 29 31 30 38 0 6 23 34 50 61 28 27
50 52 50 56 0 9 178 185 187 185 5 0 15 8 24 18 8 9 28 26 44 37 15 11 35 28
44 38 8 9 21 17 28 17 7 0 21 9 30 20 10 11 23 20 29 20 7 0 14 7 18 15 3 8
12 15 21 15 8 0 15 4 15 9 0 5 14 12 31 16 17 4 33 13 35 20 3 7 23 15 45 19
21 3 39 10 39 16 0 5 21 12 48 16 26 4 50 12 54 17 4 7 67 12 170 13 90 1 142
0 116 -3 -27 -2 -48 -8 -48 -13 0 -4 -22 -11 -50 -15 -27 -4 -50 -11 -50 -15
0 -5 -16 -12 -35 -16 -19 -3 -35 -9 -35 -13 0 -4 -16 -13 -35 -21 -19 -8 -35
-17 -35 -22 0 -4 -7 -8 -15 -8 -8 0 -23 -9 -32 -20 -10 -11 -21 -20 -26 -20
-4 0 -78 -70 -164 -155 -85 -85 -160 -155 -164 -155 -5 0 -9 -7 -9 -16 0 -8
-18 -33 -40 -54 -22 -21 -40 -41 -40 -45 0 -4 -13 -20 -30 -37 -16 -16 -30
-33 -30 -38 0 -5 -13 -22 -30 -38 -16 -17 -30 -35 -30 -41 0 -6 -9 -15 -19
-21 -11 -5 -23 -20 -27 -32 -6 -21 -62 -78 -76 -78 -5 0 -8 -6 -8 -14 0 -8
-18 -32 -40 -54 -22 -21 -40 -42 -40 -47 0 -4 -11 -18 -26 -31 -18 -17 -21
-24 -9 -24 14 0 145 122 145 136 0 3 20 25 44 48 24 24 47 52 50 63 3 11 17
26 31 33 14 7 28 23 31 34 3 12 19 33 35 48 16 15 29 30 29 34 0 3 18 24 40
46 22 22 40 44 40 49 0 8 47 57 97 100 22 19 53 57 53 64 0 12 150 154 169
160 12 3 21 11 21 16 0 5 11 14 25 19 14 5 25 14 25 20 0 5 11 12 25 16 14 3
25 10 25 15 0 5 7 9 15 9 9 0 18 6 21 14 3 8 26 19 52 26 26 6 50 17 54 23 10
16 306 17 316 1 4 -6 28 -16 55 -24 26 -7 47 -17 47 -21 0 -5 7 -9 15 -9 9 0
18 -7 21 -15 6 -15 44 -22 44 -7 -1 16 -27 39 -60 52 -19 8 -41 20 -48 27 -7
7 -20 13 -28 13 -8 0 -14 4 -14 9 0 5 -22 12 -50 16 -27 4 -50 11 -50 16 0 5
-12 9 -27 10 -16 0 -22 3 -16 6 25 10 -16 34 -67 40 -27 3 -50 10 -50 14 0 5
-49 9 -110 9 -60 0 -110 -4 -110 -9 0 -5 -29 -12 -65 -16 -36 -3 -65 -10 -65
-14 0 -4 -22 -13 -50 -20 -27 -7 -50 -17 -50 -21 0 -5 -13 -11 -30 -15 -16 -4
-30 -11 -30 -16 0 -5 -6 -9 -14 -9 -8 0 -21 -6 -28 -13 -7 -7 -25 -18 -40 -24
-16 -7 -28 -17 -28 -23 0 -5 -7 -10 -15 -10 -8 0 -23 -9 -32 -20 -10 -11 -21
-20 -26 -20 -4 0 -21 -13 -37 -30 -16 -16 -33 -30 -38 -30 -13 0 -282 -268
-282 -281 0 -11 -60 -69 -72 -69 -5 0 -8 -6 -8 -13 0 -15 -20 -40 -92 -119
-27 -28 -48 -54 -48 -58 0 -10 -78 -88 -114 -115 -15 -11 -39 -30 -52 -42 -14
-13 -32 -23 -40 -23 -7 0 -14 -4 -14 -9 0 -5 -11 -12 -25 -15 -14 -4 -25 -11
-25 -16 0 -6 -7 -10 -15 -10 -13 0 -14 11 -9 68 4 37 10 69 14 72 4 3 13 44
20 93 7 48 16 87 20 87 5 0 11 23 15 50 4 28 10 50 15 50 4 0 11 16 14 35 4
19 11 35 16 35 5 0 12 16 16 35 3 19 10 35 14 35 5 0 11 13 15 29 3 16 15 39
26 52 10 12 19 28 19 36 0 7 5 13 10 13 6 0 10 7 10 15 0 8 9 19 20 25 11 6
20 16 20 22 0 6 14 24 30 40 17 15 30 32 30 37 0 9 135 147 179 183 12 10 21
26 20 35 0 11 -3 13 -6 6 -2 -7 -10 -13 -17 -13 -21 0 -136 -106 -206 -190
-19 -23 -47 -55 -62 -71 -16 -16 -28 -34 -28 -39 0 -5 -6 -13 -13 -17 -7 -4
-19 -24 -27 -43 -8 -19 -20 -41 -27 -48 -7 -7 -13 -20 -13 -28 0 -8 -4 -14 -9
-14 -5 0 -12 -13 -16 -30 -4 -16 -10 -30 -15 -30 -4 0 -11 -19 -15 -42 -4 -23
-13 -47 -20 -54 -7 -7 -15 -35 -19 -63 -4 -27 -11 -51 -16 -53 -5 -2 -12 -36
-16 -75 -4 -40 -10 -73 -15 -73 -4 0 -10 -39 -14 -87 -4 -49 -13 -93 -21 -100
-15 -16 -204 -19 -204 -3 0 6 -9 10 -19 10 -11 0 -26 7 -35 15 -16 16 -46 20
-46 6 0 -5 7 -11 15 -15 8 -3 15 -12 15 -21 0 -8 6 -15 13 -15 7 0 20 -9 30
-20 9 -11 23 -20 31 -20 8 0 17 -12 20 -26 4 -14 20 -38 35 -53 16 -16 32 -38
36 -50 3 -11 17 -24 31 -27 13 -4 29 -15 35 -25 5 -11 16 -19 24 -19 8 0 15
-4 15 -10 0 -5 11 -12 25 -16 14 -3 25 -10 25 -14 0 -4 11 -11 24 -14 24 -6
24 -7 23 -122 -1 -74 2 -118 9 -122 7 -4 15 -22 19 -39 3 -18 11 -33 16 -33 5
0 9 -6 9 -14 0 -8 7 -22 16 -30 8 -9 11 -16 5 -16 -7 0 -11 -23 -11 -55 0 -30
4 -55 10 -55 5 0 12 -11 16 -25 4 -18 15 -26 40 -31 19 -3 34 -10 34 -15 0 -5
11 -9 25 -9 18 0 25 -5 25 -20 0 -11 -4 -20 -9 -20 -4 0 -11 -37 -15 -82 -4
-45 -11 -85 -15 -88 -5 -3 -12 -33 -16 -67 -4 -35 -10 -63 -15 -63 -4 0 -12
-24 -17 -52 -7 -34 -11 -43 -12 -25 0 15 -5 27 -10 27 -5 0 -13 10 -17 23 -4
12 -17 32 -30 44 -13 12 -24 26 -24 30 0 4 -12 19 -25 32 -14 13 -25 27 -25
32 0 5 -7 9 -15 9 -8 0 -24 9 -35 20 -11 11 -25 20 -30 20 -6 0 -10 28 -10 65
0 37 -4 65 -10 65 -5 0 -10 6 -10 13 0 7 -11 23 -25 35 -24 21 -25 52 -3 52
15 0 58 43 58 58 0 6 5 12 10 12 6 0 10 7 10 15 0 9 6 18 14 21 8 3 17 20 20
39 4 18 11 35 16 37 5 2 12 18 16 36 5 25 3 32 -10 32 -8 0 -18 -11 -22 -25
-3 -14 -10 -25 -14 -25 -5 0 -11 -13 -15 -30 -4 -16 -10 -30 -15 -30 -4 0 -11
-12 -14 -26 -8 -32 -98 -122 -105 -103 -2 7 6 19 18 27 11 8 21 20 21 27 0 8
5 15 11 17 6 2 16 41 22 86 6 45 15 82 19 82 4 0 8 36 8 80 0 61 -3 80 -14 80
-14 0 -26 -66 -26 -142 0 -21 -4 -38 -9 -38 -4 0 -11 -25 -14 -57 -3 -31 -10
-59 -16 -62 -5 -3 -12 -18 -16 -32 -10 -42 -38 -52 -98 -38 -29 8 -54 17 -57
21 -3 4 -44 10 -90 14 l-85 7 3 216 c2 121 7 217 13 219 5 2 9 29 9 60 0 85
20 286 29 292 5 3 11 31 15 63 4 31 11 57 15 57 5 0 11 23 15 50 4 28 10 50
15 50 5 0 11 19 14 41 3 23 10 45 16 48 5 4 13 26 17 49 4 24 12 49 19 55 6 7
15 29 19 50 4 20 11 37 16 37 5 0 12 11 16 25 3 14 10 25 14 25 5 0 11 13 15
29 3 16 12 32 19 34 8 3 16 17 20 32 4 15 11 32 17 38 39 47 49 61 49 68 0 5
14 22 30 37 17 16 30 32 30 36 0 13 178 184 198 190 11 4 23 13 26 21 3 8 12
15 20 15 7 0 16 6 19 14 3 8 19 17 36 21 17 4 31 10 31 15 0 5 14 11 30 15 17
4 30 11 30 15 0 5 16 12 35 16 19 3 35 10 35 14 0 5 26 14 58 21 31 7 60 16
63 21 3 4 33 11 67 14 34 4 62 10 62 15 0 4 41 11 90 15 50 3 90 10 90 15 0 5
29 9 65 9 36 0 65 -4 65 -9z m844 -902 c3 -21 11 -39 16 -39 5 0 12 -11 16
-25 3 -14 10 -25 14 -25 5 0 11 -14 15 -31 4 -17 13 -33 20 -35 7 -3 16 -17
20 -31 3 -14 11 -31 18 -39 28 -31 35 -42 42 -63 3 -12 20 -35 36 -52 16 -16
29 -33 29 -38 0 -8 12 -23 62 -81 l21 -25 -127 -3 c-69 -1 -126 -6 -126 -11 0
-5 -23 -11 -50 -15 -64 -8 -80 -15 -80 -31 0 -7 -6 -16 -12 -19 -10 -5 -10 -7
0 -12 6 -3 12 -12 12 -20 0 -8 9 -14 20 -14 11 0 20 4 20 9 0 6 21 13 48 17
26 4 50 11 53 16 8 12 225 23 231 12 7 -12 -14 -134 -23 -134 -4 0 -11 -20
-15 -45 -3 -25 -10 -45 -15 -45 -5 0 -9 5 -9 10 0 6 -8 14 -17 17 -10 4 -24
12 -31 19 -17 18 -244 14 -250 -3 -2 -7 -10 -13 -18 -13 -8 0 -17 -6 -20 -14
-3 -8 -16 -17 -30 -20 -13 -4 -24 -13 -24 -21 0 -8 -6 -18 -13 -22 -18 -11
-41 -69 -34 -88 4 -8 13 -12 22 -9 17 7 21 34 5 34 -5 0 -2 9 7 20 21 24 33
26 33 5 0 -7 6 -18 13 -22 21 -12 29 -43 12 -43 -25 0 -17 -19 10 -26 14 -3
25 -10 25 -14 0 -15 119 -32 194 -28 l76 3 0 -27 c0 -16 -4 -28 -8 -28 -5 0
-15 -52 -22 -115 -7 -63 -17 -115 -21 -115 -4 0 -10 -18 -14 -40 -4 -22 -11
-40 -15 -40 -5 0 -11 -13 -15 -30 -4 -16 -10 -30 -15 -30 -5 0 -11 -14 -15
-31 -4 -17 -13 -33 -20 -36 -8 -2 -17 -18 -20 -34 -4 -16 -11 -29 -16 -29 -5
0 -13 -8 -16 -17 -4 -10 -17 -27 -30 -39 -13 -12 -23 -26 -23 -31 0 -5 -11
-19 -25 -31 -14 -12 -25 -28 -25 -34 -1 -7 -15 -24 -32 -38 -17 -14 -38 -33
-47 -44 -9 -10 -31 -33 -49 -50 -19 -17 -41 -39 -50 -50 -37 -41 -86 -86 -94
-86 -8 0 -19 -8 -51 -36 -7 -6 -24 -15 -37 -19 -14 -4 -28 -13 -32 -19 -10
-15 -216 -15 -226 0 -4 6 -26 15 -49 19 -24 4 -43 11 -43 15 0 5 -13 11 -30
15 -16 4 -30 10 -30 14 0 4 -18 14 -40 21 -22 7 -40 16 -40 21 0 4 -12 10 -26
13 -14 4 -31 11 -37 17 -48 40 -61 49 -72 49 -6 0 -25 16 -41 35 -16 19 -32
35 -36 35 -18 0 -118 97 -118 114 -1 6 -14 22 -30 36 -17 13 -30 29 -30 36 0
7 -7 14 -15 18 -8 3 -15 12 -15 21 0 8 -4 15 -9 15 -4 0 -14 20 -21 45 -7 25
-16 45 -20 45 -4 0 -11 15 -14 34 -4 19 -12 36 -18 38 -7 3 -11 36 -12 89 -1
69 2 89 17 103 10 11 17 33 17 57 0 32 -7 46 -41 80 -40 40 -43 41 -95 37 -37
-3 -59 -10 -68 -23 -14 -19 -36 -13 -36 11 0 8 -4 14 -10 14 -5 0 -12 23 -16
50 -4 28 -10 50 -15 50 -5 0 -9 39 -9 86 l0 86 93 -8 c50 -4 94 -11 95 -15 5
-12 172 -12 172 -1 0 5 46 12 102 16 56 3 105 10 108 15 6 10 55 16 106 13 24
-2 33 -8 38 -26 4 -18 14 -24 47 -29 23 -3 45 -10 49 -16 9 -15 148 -31 208
-24 47 5 49 7 35 22 -12 12 -17 13 -21 3 -4 -14 -62 -16 -62 -2 0 6 6 13 14
16 8 3 17 16 20 30 4 13 11 24 16 24 6 0 10 16 10 35 0 19 2 35 5 35 4 0 22
-16 42 -35 20 -19 39 -35 43 -35 5 0 11 -11 14 -25 4 -14 13 -25 20 -25 11 0
13 10 9 43 -4 23 -9 44 -14 47 -4 3 -11 18 -14 33 -4 15 -10 27 -15 27 -4 0
-23 16 -43 35 -41 40 -40 59 4 74 16 5 29 14 29 19 0 6 10 12 23 16 13 3 29
17 37 31 7 14 19 25 27 25 7 0 31 17 52 38 22 20 52 46 67 57 37 27 204 194
204 204 0 8 34 44 102 107 18 17 41 41 50 52 24 30 44 18 52 -29z m393 -599
c3 -11 8 -20 12 -20 4 0 13 -16 21 -35 8 -19 17 -35 21 -35 4 0 10 -13 14 -30
4 -16 10 -30 15 -30 4 0 11 -18 15 -40 4 -22 11 -40 16 -40 5 0 9 -43 9 -95 0
-52 -4 -95 -9 -95 -5 0 -12 -13 -16 -29 -3 -15 -16 -34 -29 -41 -13 -7 -30
-23 -37 -36 -6 -13 -22 -27 -33 -30 -12 -4 -23 -10 -26 -15 -3 -4 -18 -11 -33
-14 -21 -6 -27 -4 -27 9 0 9 -8 16 -18 16 -10 0 -25 9 -35 20 -19 22 -22 40
-8 40 5 0 12 38 16 84 7 83 8 85 36 91 31 7 39 32 12 37 -15 3 -15 4 1 21 16
15 16 17 1 17 -14 0 -16 7 -10 43 4 23 11 43 16 45 5 2 11 26 15 53 4 27 10
49 14 49 4 0 10 18 14 40 7 43 24 53 33 20z m-1139 -26 c16 -5 22 -14 22 -35
0 -16 -4 -29 -10 -29 -5 0 -10 -8 -10 -19 0 -10 -12 -31 -27 -47 -23 -25 -34
-29 -75 -27 -28 0 -54 7 -63 17 -9 9 -23 16 -31 16 -8 0 -14 4 -14 10 0 5 -11
12 -25 16 -36 9 -32 34 5 34 23 0 30 -4 30 -20 0 -11 6 -20 14 -20 8 0 16 -6
18 -12 7 -20 80 -15 106 7 25 22 30 55 7 55 -9 0 -15 9 -15 24 0 32 22 42 68
30z m808 -178 c17 -18 18 -61 2 -107 -14 -41 -24 -49 -65 -49 -42 0 -44 25 -3
34 25 5 30 10 30 36 0 16 -4 30 -10 30 -5 0 -10 7 -10 15 0 8 4 15 9 15 5 0
13 9 16 20 8 24 12 25 31 6z m114 -46 c23 -23 34 -80 16 -80 -8 0 -16 -7 -20
-15 -3 -9 -18 -15 -36 -15 -16 0 -30 -4 -30 -10 0 -5 -7 -10 -15 -10 -26 0
-20 17 23 65 6 7 12 32 12 54 0 34 3 39 17 34 9 -4 24 -14 33 -23z m-1691
-216 c8 -8 -4 -11 -59 -17 -30 -3 -48 -3 -40 0 8 4 21 13 29 20 12 13 56 11
70 -3z m-121 -61 c-4 -39 -28 -42 -28 -4 0 21 5 31 16 31 11 0 14 -8 12 -27z
m162 -13 c0 -40 -13 -53 -24 -24 -11 29 -7 64 9 64 11 0 15 -11 15 -40z m-59
2 c13 -16 13 -19 -2 -36 -18 -18 -59 -15 -59 5 0 5 -7 9 -16 9 -13 0 -13 2 -2
13 29 30 59 33 79 9z m2329 -42 c22 -22 26 -40 10 -40 -5 0 -10 -14 -10 -30 0
-23 -6 -33 -24 -40 -13 -5 -25 -13 -27 -18 -2 -5 -21 -12 -41 -16 l-38 -7 0
65 c0 62 1 65 30 78 17 7 30 16 30 20 0 16 51 7 70 -12z m-233 -21 c4 -12 17
-22 34 -26 28 -5 29 -7 27 -64 -2 -58 -2 -59 -30 -59 -15 0 -28 4 -28 9 0 6
-17 11 -37 13 -35 3 -38 5 -37 33 2 94 4 104 22 108 34 9 44 7 49 -14z m-2688
-7 c4 -6 26 -14 49 -18 23 -4 42 -10 42 -15 0 -5 7 -9 15 -9 9 0 18 -7 21 -15
4 -8 11 -15 18 -15 6 0 26 -13 44 -30 29 -26 33 -36 35 -87 2 -72 -14 -79 -67
-28 -21 19 -48 38 -62 41 -13 3 -24 10 -24 14 0 4 -16 11 -35 14 -19 4 -35 11
-35 15 0 5 -22 11 -49 15 -27 4 -51 11 -53 16 -2 5 -40 12 -85 16 l-83 7 0 31
c0 35 8 50 30 59 24 11 232 0 239 -11z m501 3 c0 -8 -4 -15 -10 -15 -5 0 -10
7 -10 15 0 8 5 15 10 15 6 0 10 -7 10 -15z m130 -2 c-1 -14 -27 -43 -39 -43
-6 0 -11 7 -11 15 0 8 7 15 15 15 8 0 15 5 15 10 0 6 5 10 10 10 6 0 10 -3 10
-7z m2477 -63 c3 -11 9 -20 14 -20 5 0 9 -7 9 -15 0 -8 -4 -15 -9 -15 -5 0
-12 -13 -16 -30 -4 -18 -15 -32 -28 -36 -12 -3 -30 -16 -39 -28 l-17 -21 -20
22 c-32 34 -29 107 5 138 35 32 93 35 101 5z m-3267 -69 c0 -4 27 -11 60 -15
33 -4 60 -11 60 -16 0 -6 9 -10 20 -10 24 0 26 -13 5 -34 -8 -8 -15 -20 -15
-26 0 -6 -6 -13 -14 -16 -8 -3 -18 -19 -21 -35 -4 -16 -10 -29 -15 -29 -4 0
-11 -12 -14 -26 -4 -15 -13 -33 -21 -40 -8 -8 -17 -41 -21 -74 -4 -33 -11 -60
-15 -60 -5 0 -9 -25 -9 -55 0 -30 5 -55 10 -55 6 0 10 -21 10 -47 0 -63 19
-176 30 -183 5 -3 12 -25 16 -48 4 -23 10 -42 14 -42 4 0 11 -16 14 -35 4 -19
11 -35 16 -35 6 0 10 -6 10 -14 0 -8 6 -21 13 -28 7 -7 18 -24 24 -38 9 -19
12 -21 12 -7 1 28 -20 107 -29 107 -5 0 -11 18 -15 40 -4 22 -10 40 -15 40 -4
0 -10 19 -14 42 -4 23 -11 45 -16 48 -5 3 -12 43 -16 88 -4 45 -11 82 -15 82
-5 0 -9 36 -9 80 0 44 4 80 9 80 4 0 11 23 14 52 4 28 11 54 16 57 5 4 13 19
16 34 4 15 11 27 16 27 5 0 9 6 9 14 0 8 6 21 14 28 7 8 19 30 27 51 11 31 18
37 41 37 15 0 28 -4 28 -10 0 -5 6 -10 13 -10 8 0 23 -8 35 -17 11 -10 34 -29
51 -43 17 -14 31 -29 31 -33 0 -5 6 -14 13 -21 6 -7 21 -25 32 -40 11 -16 25
-33 31 -40 5 -6 13 -19 17 -28 3 -10 11 -18 17 -18 5 0 10 -7 10 -15 0 -9 6
-18 14 -21 8 -3 18 -19 21 -36 4 -16 13 -32 20 -35 8 -2 17 -18 20 -34 4 -16
10 -29 15 -29 5 0 11 -13 15 -30 4 -16 10 -30 15 -30 4 0 11 -16 14 -35 4 -19
11 -35 15 -35 5 0 14 -29 21 -65 7 -36 16 -65 20 -65 4 0 11 -24 14 -52 4 -29
13 -56 19 -60 17 -10 17 -545 1 -556 -6 -4 -15 -31 -19 -59 -4 -29 -10 -53
-15 -53 -4 0 -13 -21 -19 -46 -11 -42 -16 -53 -47 -87 -6 -7 -15 -23 -18 -35
-10 -30 -36 -28 -36 3 0 14 -4 25 -9 25 -4 0 -14 27 -21 60 -7 33 -16 60 -21
60 -4 0 -11 16 -15 35 -3 19 -10 35 -14 35 -5 0 -11 14 -15 30 -4 17 -10 30
-15 30 -5 0 -11 14 -15 30 -4 17 -10 30 -15 30 -5 0 -11 13 -15 29 -3 16 -15
39 -26 52 -10 12 -19 28 -19 36 0 7 -4 13 -10 13 -5 0 -10 7 -10 15 0 9 -7 18
-15 21 -8 4 -15 12 -15 20 0 8 -9 14 -20 14 -11 0 -20 -4 -20 -10 0 -5 4 -10
10 -10 5 0 15 -18 21 -40 7 -22 16 -40 20 -40 4 0 10 -13 14 -30 4 -16 10 -30
15 -30 5 0 11 -13 15 -30 4 -16 10 -30 14 -30 4 0 14 -25 21 -55 7 -30 17 -55
21 -55 5 0 11 -16 15 -35 3 -19 10 -35 15 -35 4 0 11 -20 15 -45 3 -25 10 -45
14 -45 5 0 11 -18 15 -40 4 -22 10 -40 14 -40 7 0 31 -146 31 -192 0 -15 6
-28 13 -30 16 -6 18 -435 1 -446 -6 -4 -17 -43 -23 -87 -7 -44 -18 -83 -23
-86 -5 -3 -12 -25 -15 -48 -3 -22 -9 -41 -14 -41 -4 0 -10 -13 -14 -30 -4 -16
-11 -30 -16 -30 -5 0 -11 -11 -15 -25 -3 -14 -10 -25 -14 -25 -4 0 -11 -11
-14 -25 -3 -13 -19 -38 -35 -54 -16 -17 -32 -39 -36 -50 -8 -26 -34 -36 -28
-10 3 10 9 19 13 19 5 0 11 23 15 50 4 28 11 50 16 50 5 0 9 52 9 115 0 63 -4
115 -9 115 -5 0 -11 23 -15 50 -4 28 -10 50 -15 50 -5 0 -14 20 -21 45 -7 25
-17 45 -21 45 -5 0 -9 6 -9 13 0 8 -9 24 -20 37 -11 13 -20 27 -20 32 0 9 -12
26 -41 56 -9 9 -19 26 -23 38 -3 11 -18 27 -31 34 -14 7 -25 19 -25 26 0 7
-22 35 -50 62 -28 27 -50 53 -50 57 0 4 -53 60 -117 125 -133 135 -183 189
-183 201 0 5 -13 21 -28 36 -16 16 -31 36 -35 46 -3 9 -11 17 -17 17 -5 0 -10
7 -10 15 0 9 -6 18 -14 21 -8 3 -17 16 -20 28 -3 12 -15 33 -26 46 -11 13 -20
29 -20 37 0 7 -4 13 -9 13 -5 0 -12 11 -15 25 -4 14 -11 25 -16 25 -6 0 -10 6
-10 14 0 8 -6 21 -13 28 -7 7 -19 34 -26 61 -8 26 -17 47 -22 47 -4 0 -11 16
-15 35 -3 19 -10 35 -14 35 -5 0 -11 18 -15 40 -4 22 -11 40 -15 40 -5 0 -12
29 -15 65 -4 36 -11 65 -16 65 -5 0 -9 54 -9 120 0 73 4 120 10 120 6 0 10 14
10 31 0 39 -22 34 -31 -7 -19 -86 -2 -414 21 -414 4 0 11 -20 14 -45 4 -25 11
-45 15 -45 5 0 12 -16 15 -35 4 -19 11 -35 16 -35 4 0 11 -13 15 -30 4 -16 10
-30 14 -30 4 0 13 -18 20 -40 6 -22 16 -40 20 -40 5 0 12 -11 15 -25 4 -14 11
-25 16 -25 6 0 10 -6 10 -13 0 -8 9 -24 20 -37 11 -13 20 -29 20 -37 0 -7 5
-13 10 -13 6 0 15 -11 20 -25 5 -14 14 -25 20 -25 5 0 10 -7 10 -15 0 -8 9
-23 20 -32 11 -10 20 -21 20 -26 0 -4 14 -21 30 -37 17 -16 30 -32 30 -36 0
-4 16 -22 35 -41 19 -19 35 -38 35 -43 0 -8 82 -93 137 -142 10 -9 32 -31 50
-50 17 -18 43 -44 57 -57 14 -13 26 -28 26 -35 0 -6 14 -22 30 -36 17 -14 30
-29 30 -34 0 -5 10 -18 23 -30 12 -12 28 -33 36 -49 8 -15 18 -27 23 -27 4 0
8 -6 8 -13 0 -8 9 -24 20 -37 11 -13 20 -29 20 -37 0 -7 4 -13 10 -13 5 0 12
-16 16 -35 3 -19 9 -35 13 -35 10 0 31 -93 31 -136 0 -19 5 -34 10 -34 6 0 10
-22 10 -50 0 -27 -4 -50 -10 -50 -5 0 -10 -16 -10 -35 0 -46 -20 -135 -30
-135 -5 0 -11 -13 -15 -30 -4 -16 -11 -30 -16 -30 -5 0 -9 -5 -9 -11 0 -13
-73 -84 -95 -92 -8 -4 -15 -11 -15 -17 0 -5 -4 -10 -10 -10 -5 0 -10 7 -10 15
0 8 4 15 10 15 5 0 12 11 16 25 3 14 10 25 14 25 12 0 30 108 30 183 0 79 -18
197 -30 197 -4 0 -11 16 -14 35 -4 19 -11 35 -15 35 -5 0 -12 16 -15 35 -4 19
-11 35 -16 35 -4 0 -11 14 -15 30 -4 17 -10 30 -14 30 -4 0 -13 19 -20 41 -12
39 -18 49 -47 82 -6 7 -15 23 -18 35 -4 12 -11 22 -16 22 -5 0 -14 17 -21 38
-6 20 -18 41 -25 45 -8 4 -14 14 -14 21 0 8 -7 16 -15 20 -8 3 -15 10 -15 16
0 6 -6 18 -12 25 -27 30 -34 41 -48 75 -8 19 -20 39 -27 43 -7 4 -13 14 -13
21 0 8 -7 16 -15 20 -8 3 -15 10 -15 16 0 6 -5 16 -10 23 -41 48 -50 62 -50
74 0 7 -6 16 -14 19 -8 3 -18 18 -21 34 -3 16 -13 31 -21 34 -8 3 -14 12 -14
21 0 8 -4 15 -9 15 -5 0 -15 15 -22 33 -7 17 -18 37 -24 44 -28 33 -33 41 -39
61 -4 12 -12 22 -17 22 -5 0 -9 6 -9 13 0 8 -9 24 -19 36 -11 13 -23 35 -26
51 -3 16 -13 31 -21 34 -8 3 -14 12 -14 21 0 8 -4 15 -9 15 -5 0 -12 14 -16
30 -4 17 -11 30 -16 30 -5 0 -11 11 -15 25 -3 14 -10 25 -14 25 -5 0 -14 26
-21 58 -7 31 -17 60 -21 63 -5 3 -11 29 -15 57 -3 29 -10 52 -14 52 -5 0 -9
68 -9 150 0 83 4 150 9 150 4 0 11 23 14 52 4 28 10 54 15 57 5 3 12 23 16 43
4 21 13 43 20 51 7 7 17 24 21 37 4 13 11 28 16 34 41 49 49 60 49 68 0 5 14
22 30 38 17 16 30 32 30 35 0 13 148 153 167 159 12 4 24 13 27 21 3 8 12 15
20 15 7 0 16 7 20 15 3 8 12 15 21 15 8 0 15 4 15 9 0 5 16 15 35 21 19 6 35
16 35 21 0 5 11 11 25 15 14 3 25 10 25 15 0 5 32 9 70 9 39 0 70 -4 70 -9z
m3090 -61 c4 0 10 -7 14 -15 7 -20 -18 -20 -38 0 -8 8 -32 19 -53 24 -21 5
-30 9 -20 10 9 1 17 5 17 10 0 5 14 12 30 16 17 4 31 12 32 18 1 7 3 -5 5 -25
2 -21 8 -38 13 -38z m-2285 -86 c8 -9 15 -22 15 -30 0 -8 4 -14 9 -14 5 0 12
-13 16 -30 4 -16 11 -30 16 -30 5 0 9 -6 9 -12 0 -14 31 -55 80 -104 16 -17
30 -34 30 -37 0 -9 46 -57 54 -57 4 0 20 -12 35 -27 15 -16 40 -37 56 -48 15
-11 35 -28 44 -37 8 -10 21 -18 28 -18 7 0 13 -4 13 -9 0 -5 15 -15 33 -22 17
-7 38 -19 45 -26 7 -7 20 -13 27 -13 15 0 30 -35 21 -49 -7 -11 -89 -2 -97 11
-3 5 -83 12 -178 15 -94 3 -171 10 -171 15 0 4 -22 8 -50 8 -27 0 -50 -4 -50
-10 0 -5 -16 -10 -35 -10 -31 0 -36 3 -41 30 -4 17 -10 30 -14 30 -5 0 -12 15
-15 33 -4 17 -12 35 -18 39 -15 9 -14 77 1 86 6 4 14 28 18 52 4 25 11 48 16
51 5 3 11 29 15 57 3 29 9 52 14 52 4 0 11 29 14 65 4 36 11 65 16 65 5 0 9
15 10 33 l1 32 9 -38 c5 -21 16 -45 24 -53z m2036 74 c0 -10 2 -10 6 0 6 16
51 16 67 -1 7 -7 15 -27 18 -45 4 -26 1 -32 -13 -32 -10 0 -24 6 -31 13 -7 7
-21 16 -30 20 -10 3 -18 11 -18 17 0 5 -7 10 -15 10 -9 0 -12 6 -9 15 7 18 24
20 25 3z m189 -27 c3 -4 13 -10 23 -14 25 -9 21 -26 -10 -38 -41 -16 -73 3
-73 42 0 29 2 31 27 24 15 -3 30 -10 33 -14z m348 10 c25 -2 4 -71 -22 -71 -3
0 -19 -13 -36 -30 -39 -38 -68 -38 -103 1 -32 37 -35 65 -7 74 11 3 20 10 20
15 0 14 63 19 148 11z m-2883 -127 c30 -31 55 -59 55 -63 0 -5 9 -18 20 -31
11 -13 20 -29 20 -37 0 -7 4 -13 9 -13 5 0 12 -11 15 -25 4 -14 11 -25 16 -25
6 0 10 -9 10 -20 0 -11 -4 -20 -10 -20 -5 0 -10 4 -10 8 0 5 -9 19 -20 32 -11
13 -20 29 -20 37 0 7 -4 13 -10 13 -5 0 -10 7 -10 15 0 7 -6 18 -13 22 -6 4
-19 22 -27 38 -8 17 -27 41 -42 55 -16 13 -28 30 -28 37 0 7 -4 13 -10 13 -5
0 -10 5 -10 10 0 17 7 12 65 -46z m2645 41 c0 -8 4 -15 9 -15 5 0 12 -12 16
-27 3 -15 12 -31 18 -35 19 -12 -17 -10 -68 4 -25 7 -45 16 -45 20 0 4 -9 8
-20 8 -30 0 -14 28 21 35 16 4 29 11 29 16 0 5 9 9 20 9 11 0 20 -7 20 -15z
m-2130 -546 c118 -5 217 -14 220 -18 3 -5 38 -12 78 -16 39 -4 72 -11 72 -15
0 -4 25 -11 55 -15 30 -3 55 -10 55 -14 0 -5 27 -14 60 -21 33 -7 60 -16 60
-21 0 -4 14 -10 30 -14 17 -4 30 -11 30 -16 0 -5 11 -9 24 -9 14 0 31 -6 39
-14 7 -8 33 -20 55 -27 23 -7 42 -16 42 -21 0 -4 7 -8 15 -8 9 0 18 -6 21 -14
3 -8 17 -17 32 -21 15 -4 21 -10 14 -12 -6 -3 -15 -22 -18 -44 -4 -21 -10 -39
-15 -39 -4 0 -13 -16 -20 -35 -7 -19 -17 -35 -21 -35 -4 0 -8 -8 -8 -17 0 -14
9 -18 45 -19 45 -1 63 17 29 30 -17 7 -11 40 12 64 8 7 14 25 14 38 0 29 21
54 46 54 19 0 54 36 54 55 0 12 21 25 39 25 4 0 13 -18 20 -40 6 -22 16 -40
21 -40 5 0 12 -10 15 -22 7 -19 18 -32 72 -79 10 -9 30 -30 44 -47 15 -17 45
-37 68 -44 22 -7 41 -16 41 -19 0 -4 -26 -10 -58 -14 -43 -5 -61 -12 -71 -27
-14 -22 0 -48 25 -48 8 0 14 -4 14 -9 0 -5 27 -12 60 -16 33 -4 60 -10 60 -15
0 -4 -33 -10 -72 -13 -40 -4 -74 -11 -76 -16 -2 -5 -19 -15 -38 -21 -19 -6
-34 -16 -34 -21 0 -28 -43 2 -132 91 -55 55 -106 100 -114 100 -8 0 -14 6 -15
13 0 10 -2 10 -6 0 -5 -15 -43 -18 -43 -4 0 13 -140 31 -248 31 -104 0 -262
-18 -262 -30 0 -4 -16 -11 -35 -14 -22 -4 -35 -13 -35 -22 0 -12 9 -14 48 -8
26 4 50 11 54 17 9 15 357 15 366 1 4 -7 33 -15 65 -19 31 -4 57 -11 57 -15 0
-4 12 -11 27 -15 29 -7 103 -75 103 -94 0 -6 7 -14 15 -17 8 -3 18 -22 21 -42
4 -20 13 -43 21 -50 7 -7 13 -24 13 -38 0 -13 4 -24 8 -24 14 0 32 -178 32
-312 0 -160 -21 -532 -30 -538 -4 -3 -11 -76 -15 -162 -4 -87 -11 -158 -15
-158 -4 0 -11 -63 -15 -140 -4 -77 -11 -140 -15 -140 -4 0 -13 -88 -20 -195
-7 -107 -16 -195 -20 -195 -4 0 -11 -61 -15 -135 -4 -74 -11 -135 -15 -135 -4
0 -11 -55 -15 -122 -4 -68 -11 -125 -16 -128 -4 -3 -11 -104 -15 -223 -6 -193
-5 -217 8 -212 12 5 17 32 23 126 4 65 10 119 15 119 4 0 11 52 15 115 4 63
10 115 15 115 4 0 13 81 21 180 7 99 16 180 20 180 4 0 10 49 14 110 4 61 11
110 15 110 4 0 11 62 15 137 4 76 11 140 15 143 4 3 14 92 21 198 7 105 16
192 20 192 4 0 10 73 14 163 5 99 12 165 18 169 16 10 16 686 1 696 -6 4 -14
27 -18 52 -4 24 -11 47 -16 50 -4 3 -11 19 -14 35 -3 17 -3 23 1 15 3 -8 30
-38 60 -66 29 -28 53 -55 53 -60 0 -4 23 -30 50 -56 28 -26 50 -51 50 -56 0
-4 8 -14 18 -23 9 -8 26 -28 37 -43 11 -16 32 -41 48 -56 15 -16 27 -33 27
-39 0 -5 8 -16 19 -23 10 -7 21 -23 25 -35 4 -13 12 -23 17 -23 5 0 9 -7 9
-15 0 -9 6 -18 14 -21 8 -3 18 -18 21 -34 3 -16 12 -31 20 -33 7 -3 16 -19 20
-36 4 -17 11 -31 15 -31 5 0 12 -16 16 -35 3 -19 10 -35 15 -35 4 0 11 -16 15
-35 3 -19 10 -35 15 -35 4 0 11 -31 15 -70 3 -38 11 -70 15 -70 5 0 9 -29 9
-65 0 -36 -4 -65 -9 -65 -4 0 -11 -30 -14 -67 -4 -37 -11 -69 -16 -72 -5 -3
-12 -25 -16 -48 -4 -24 -10 -43 -15 -43 -4 0 -11 -16 -14 -35 -4 -19 -11 -35
-15 -35 -5 0 -14 -29 -21 -65 -7 -36 -16 -65 -21 -65 -4 0 -11 -16 -15 -35 -3
-19 -10 -35 -14 -35 -4 0 -11 -16 -14 -35 -4 -19 -11 -35 -16 -35 -4 0 -11
-19 -15 -42 -4 -24 -11 -45 -16 -48 -4 -3 -14 -36 -21 -73 -7 -37 -16 -67 -19
-67 -4 0 -10 -31 -14 -70 -4 -39 -11 -70 -16 -70 -5 0 -9 -49 -9 -110 0 -60 4
-110 9 -110 4 0 11 -20 13 -44 3 -25 12 -52 21 -60 8 -9 18 -29 22 -46 4 -16
10 -30 15 -30 5 0 12 -20 16 -45 3 -25 10 -45 15 -45 5 0 9 -52 9 -115 0 -63
-4 -115 -9 -115 -5 0 -11 -18 -15 -40 -3 -22 -11 -40 -16 -40 -6 0 -10 -7 -10
-15 0 -36 45 6 56 52 4 16 12 31 18 35 16 10 15 256 -1 266 -7 4 -15 27 -19
50 -4 23 -10 42 -15 42 -5 0 -9 7 -9 15 0 7 -7 18 -15 22 -17 10 -35 93 -35
159 0 37 3 44 19 44 11 0 21 -4 23 -9 3 -11 178 -31 262 -31 l53 0 13 -42 c7
-24 17 -46 22 -49 13 -9 23 -99 14 -133 -4 -17 -13 -26 -26 -26 -11 0 -20 -5
-20 -11 0 -9 22 -10 75 -6 41 3 75 2 75 -2 0 -25 -24 -121 -30 -121 -4 0 -11
-16 -14 -35 -4 -19 -11 -35 -15 -35 -5 0 -12 -16 -15 -35 -4 -19 -11 -35 -16
-35 -5 0 -12 -16 -16 -35 -3 -19 -9 -35 -13 -35 -4 0 -13 -16 -20 -35 -7 -19
-17 -35 -22 -35 -5 0 -9 -6 -9 -13 0 -8 -9 -25 -20 -38 -31 -38 -34 -42 -49
-71 -8 -16 -17 -28 -21 -28 -4 0 -23 -16 -43 -35 -20 -19 -41 -35 -47 -35 -6
0 -13 -6 -16 -14 -7 -18 -95 -40 -123 -31 -44 14 -21 -26 74 -126 8 -9 15 -21
15 -27 0 -7 4 -12 8 -12 5 0 14 -16 22 -35 8 -19 17 -35 21 -35 4 0 11 -10 15
-22 3 -12 13 -28 20 -36 8 -7 14 -24 14 -38 0 -13 5 -24 10 -24 6 0 10 -6 10
-14 0 -8 6 -21 14 -29 8 -8 21 -51 28 -96 7 -44 16 -81 20 -81 4 0 8 -13 8
-30 0 -16 -4 -30 -10 -30 -5 0 -10 -6 -10 -14 0 -8 -9 -18 -20 -21 -11 -3 -20
-10 -20 -15 0 -5 -13 -11 -30 -15 -16 -4 -30 -11 -30 -15 0 -5 -16 -12 -35
-16 -19 -3 -35 -10 -35 -14 0 -5 -22 -14 -50 -21 -28 -7 -50 -16 -50 -20 0 -4
-20 -11 -45 -15 -25 -3 -45 -10 -45 -14 0 -4 -17 -11 -37 -15 -21 -4 -42 -12
-46 -18 -6 -9 -10 -9 -14 1 -2 6 -10 12 -16 12 -7 0 -23 13 -37 30 -13 16 -36
32 -51 35 -32 7 -39 27 -39 113 0 34 -4 62 -10 62 -5 0 -10 14 -10 31 0 52
-23 209 -31 209 -3 0 -9 22 -13 50 -4 27 -10 50 -15 50 -5 0 -11 22 -15 49 -4
27 -11 51 -16 53 -5 2 -11 14 -12 28 -3 24 0 25 75 34 42 4 77 12 77 16 0 4
25 11 55 15 30 3 55 10 55 15 0 4 20 11 45 14 25 4 45 11 45 15 0 4 20 12 44
19 40 10 46 16 55 49 14 49 14 183 1 183 -6 0 -10 -27 -10 -60 0 -33 -4 -60
-9 -60 -6 0 -11 -17 -13 -37 -3 -33 -7 -38 -30 -41 -16 -2 -28 -7 -28 -12 0
-5 -34 -14 -75 -21 -41 -6 -75 -15 -75 -20 0 -4 -26 -11 -57 -15 -32 -4 -60
-10 -63 -14 -3 -4 -29 -10 -57 -14 l-52 -7 2 82 c1 59 -2 84 -10 86 -7 3 -13
11 -13 18 0 10 23 16 80 21 44 3 80 10 80 14 0 5 32 11 70 15 39 4 70 10 70
15 0 4 26 10 58 13 71 8 92 15 92 32 0 9 -13 11 -47 7 -27 -3 -50 -8 -53 -11
-5 -7 -186 -31 -232 -31 -14 0 -28 -4 -30 -9 -1 -5 -34 -11 -73 -14 -38 -3
-71 -6 -72 -6 -8 -2 -2 -31 6 -31 5 0 13 -15 16 -32 4 -18 13 -36 19 -40 8 -6
7 -11 -4 -17 -18 -12 -21 -158 -3 -169 6 -4 14 -24 18 -45 4 -20 11 -37 15
-37 4 0 13 -36 21 -80 7 -44 16 -80 20 -80 4 0 11 -35 14 -77 4 -43 11 -80 15
-83 4 -3 11 -49 15 -102 6 -85 5 -98 -8 -98 -8 0 -17 5 -19 11 -2 6 -41 13
-86 16 -45 3 -82 10 -82 14 0 5 -56 9 -125 9 -69 0 -125 -4 -125 -9 0 -4 -27
-11 -60 -15 -33 -4 -60 -11 -60 -16 0 -5 -25 -12 -55 -15 -30 -4 -55 -10 -55
-14 0 -4 -29 -14 -65 -21 -36 -7 -65 -17 -65 -22 0 -4 -8 -8 -19 -8 -20 0 -31
25 -31 73 0 15 -4 27 -9 27 -4 0 -12 37 -16 82 -4 46 -11 85 -16 88 -4 3 -14
71 -20 150 -7 80 -17 148 -23 152 -14 9 -11 1659 3 1667 15 10 26 1236 12
1246 -7 4 -15 4 -19 0 -4 -4 -9 -93 -10 -198 -2 -106 -8 -194 -12 -197 -4 -3
-11 -187 -15 -410 -4 -223 -11 -407 -16 -410 -4 -3 -11 -304 -15 -668 -5 -466
-10 -662 -18 -663 -34 -3 -102 4 -106 11 -3 4 -35 11 -72 14 -38 4 -68 12 -68
17 0 15 -27 10 -34 -7 -8 -20 -8 -152 0 -181 4 -13 13 -23 20 -23 8 0 17 -6
20 -14 3 -7 24 -17 47 -20 23 -4 44 -11 47 -16 3 -5 39 -15 80 -21 41 -7 78
-17 82 -23 4 -6 8 -39 8 -73 0 -35 4 -63 9 -63 5 0 12 -47 16 -105 4 -58 10
-105 15 -105 4 0 11 -38 15 -85 4 -47 10 -85 14 -85 4 0 13 -40 19 -90 14
-105 8 -122 -49 -139 -29 -9 -59 -9 -124 1 -47 6 -85 15 -85 20 0 4 -22 10
-50 14 -27 4 -50 10 -50 15 0 4 -20 11 -45 15 -25 3 -45 10 -45 14 0 4 -25 13
-55 20 -30 7 -55 17 -55 21 0 4 -13 10 -30 14 -16 4 -30 10 -30 15 0 5 -13 11
-30 15 -17 4 -30 10 -30 14 0 4 -16 13 -35 21 -19 7 -36 19 -39 27 -3 7 -10
13 -16 13 -6 0 -27 15 -46 34 -28 27 -34 40 -29 57 8 25 63 79 81 79 7 0 14 7
18 15 3 8 10 15 16 15 18 0 120 95 120 112 0 5 11 19 24 31 14 13 28 35 31 49
4 15 13 29 21 32 8 3 14 12 14 21 0 8 4 15 9 15 5 0 13 15 16 33 9 38 33 64
69 73 19 4 26 13 26 30 0 13 -4 24 -10 24 -5 0 -10 -4 -10 -9 0 -5 -9 -11 -20
-14 -18 -5 -19 -1 -13 42 3 25 11 49 17 53 16 10 15 586 0 596 -7 4 -15 40
-19 80 -4 39 -10 72 -14 72 -4 0 -13 38 -20 85 -7 47 -17 85 -21 85 -4 0 -10
22 -14 50 -4 27 -11 50 -15 50 -5 0 -12 20 -15 45 -4 25 -11 45 -16 45 -4 0
-11 18 -15 40 -4 22 -10 40 -14 40 -4 0 -13 27 -19 60 -7 33 -17 60 -21 60 -5
0 -12 16 -15 35 -4 19 -11 35 -16 35 -5 0 -12 16 -16 35 -3 19 -10 35 -14 35
-5 0 -11 14 -15 30 -4 17 -10 30 -15 30 -5 0 -11 14 -15 31 -5 24 -2 35 14 50
12 11 21 26 21 33 0 8 7 16 15 20 8 3 15 12 15 21 0 8 4 15 9 15 5 0 12 12 15
26 4 15 14 33 21 41 8 8 18 32 21 54 4 21 10 39 14 39 5 0 11 18 15 40 4 22
10 40 15 40 4 0 11 26 15 58 4 31 12 60 19 64 16 10 16 526 0 536 -7 4 -15 35
-19 70 -6 57 -5 66 14 83 12 11 21 24 21 29 0 6 8 19 18 29 31 35 39 47 46 69
4 12 11 22 16 22 4 0 11 16 14 35 4 19 11 35 15 35 5 0 12 17 16 37 4 21 10
40 15 43 12 7 30 196 30 309 0 114 -18 314 -30 321 -4 3 -11 29 -15 58 l-7 52
29 0 c15 0 125 -5 243 -11z m460 -21 c0 -4 -7 -8 -15 -8 -8 0 -15 5 -15 10 0
6 -9 10 -20 10 -11 0 -20 4 -20 9 0 5 15 4 35 -2 19 -6 35 -14 35 -19z m455
12 c3 -11 11 -20 16 -20 5 0 9 -7 9 -15 0 -9 7 -18 15 -21 8 -4 15 -12 15 -18
0 -7 9 -22 20 -34 24 -25 26 -42 5 -42 -8 0 -15 5 -15 10 0 6 -7 10 -15 10 -9
0 -19 8 -22 17 -12 30 -44 57 -53 43 -10 -16 -1 -51 18 -70 10 -10 11 -15 3
-18 -14 -5 -61 38 -61 56 0 6 -7 12 -15 12 -10 0 -15 -10 -15 -30 0 -27 -3
-30 -30 -30 -16 0 -30 5 -30 10 0 6 -6 10 -14 10 -8 0 -21 7 -29 15 -8 8 -37
20 -64 27 -26 7 -50 16 -53 19 -3 4 -14 9 -25 11 -11 2 24 4 78 4 61 -1 100 3
105 10 4 6 24 14 45 18 20 4 37 11 37 15 0 9 38 29 57 30 6 1 15 -8 18 -19z
m585 -540 c0 -5 11 -10 24 -10 31 0 129 -22 136 -30 3 -4 13 -9 23 -13 18 -7
24 -37 7 -37 -5 0 -19 -9 -31 -21 -25 -25 -66 -19 -88 11 -7 11 -20 20 -27 20
-8 0 -14 4 -14 10 0 5 -18 13 -40 16 -22 4 -40 10 -40 13 0 4 -47 13 -105 20
-58 7 -105 17 -105 22 0 5 59 9 130 9 80 0 130 -4 130 -10z m258 -27 c-10 -2
-26 -2 -35 0 -10 3 -2 5 17 5 19 0 27 -2 18 -5z m-248 -113 c3 -4 25 -10 50
-14 l46 -7 0 -55 c1 -31 6 -59 11 -63 5 -3 13 -21 16 -40 6 -29 23 -50 74 -91
7 -6 23 -10 37 -10 13 0 31 -6 38 -13 35 -35 128 -30 149 9 17 32 26 30 34 -6
4 -16 10 -30 15 -30 5 0 11 -13 15 -30 4 -16 10 -30 15 -30 4 0 11 -16 14 -35
4 -19 11 -35 16 -35 4 0 11 -14 15 -31 4 -17 13 -33 20 -35 7 -3 16 -17 20
-32 4 -15 12 -30 18 -34 16 -10 16 -426 0 -436 -6 -4 -14 -56 -18 -119 -4 -62
-11 -113 -16 -113 -5 0 -9 -15 -9 -34 0 -18 -3 -54 -6 -79 -6 -45 -7 -46 -55
-57 -27 -7 -49 -16 -49 -20 0 -4 -11 -11 -24 -14 -32 -8 -118 -92 -137 -133
-7 -18 -17 -33 -21 -33 -4 0 -10 -22 -14 -50 -5 -38 -11 -51 -27 -56 -12 -4
-27 -13 -35 -20 -7 -8 -24 -14 -38 -14 -27 0 -33 -24 -8 -34 9 -3 31 -6 50 -6
35 0 45 -13 21 -27 -21 -12 -37 -70 -37 -132 1 -67 15 -134 29 -139 6 -2 11
-15 11 -28 0 -21 -5 -24 -35 -24 -19 0 -35 4 -35 9 0 5 -40 12 -90 15 -49 4
-90 12 -90 17 0 5 -9 9 -19 9 -11 0 -22 4 -25 9 -7 11 15 184 25 191 3 3 9 31
13 63 4 31 11 57 16 57 4 0 11 20 14 45 4 25 11 45 16 45 5 0 12 16 16 35 3
19 10 35 14 35 5 0 14 23 21 50 7 28 16 50 20 50 4 0 10 14 14 30 4 17 10 30
15 30 4 0 11 18 15 40 4 22 10 40 15 40 4 0 11 20 14 45 4 25 11 45 15 45 11
0 31 206 31 316 0 96 -16 215 -30 224 -5 3 -12 18 -15 33 -4 15 -11 27 -16 27
-5 0 -9 6 -9 13 0 8 -9 24 -20 37 -11 13 -20 29 -20 37 0 7 -4 13 -8 13 -5 0
-14 16 -22 35 -7 19 -19 36 -27 39 -7 3 -13 11 -13 17 0 6 -11 22 -25 35 -14
13 -25 27 -25 31 0 5 -9 16 -20 26 -11 9 -20 23 -20 30 0 7 -13 23 -30 37 -16
14 -30 29 -30 34 0 5 -18 27 -40 48 -22 22 -40 47 -39 56 0 11 2 12 6 5 5 -15
63 -18 63 -4 0 5 -13 15 -30 23 -16 7 -30 16 -30 19 0 4 -16 10 -35 13 -19 4
-35 11 -35 16 0 6 -6 10 -13 10 -12 0 -47 34 -47 45 0 3 30 5 67 5 71 0 183
-19 183 -31 0 -4 18 -10 40 -14 22 -4 40 -11 40 -16 0 -5 7 -9 15 -9 16 0 19
18 7 36 -4 7 -26 17 -49 24 -24 7 -43 17 -43 21 0 4 -20 11 -45 15 -25 3 -45
10 -45 15 0 5 -34 9 -76 9 -65 0 -73 2 -61 14 22 22 114 32 207 23 47 -5 87
-12 90 -17z m546 -145 c3 -14 15 -30 25 -36 11 -5 19 -15 19 -21 0 -5 18 -27
40 -48 22 -21 40 -42 40 -46 0 -9 34 -53 65 -85 8 -9 15 -21 15 -27 0 -7 4
-12 9 -12 5 0 14 -15 22 -32 7 -18 17 -36 22 -39 5 -3 11 -25 14 -48 3 -22 10
-41 14 -41 5 0 9 -45 9 -100 0 -55 -4 -100 -9 -100 -5 0 -11 -22 -15 -50 -4
-27 -11 -50 -16 -50 -5 0 -12 -16 -16 -35 -3 -19 -12 -39 -19 -43 -8 -4 -17
-19 -20 -34 -11 -42 18 -36 35 7 8 19 17 35 21 35 4 0 10 14 14 30 5 25 11 30
36 30 16 0 29 -4 29 -8 0 -5 23 -14 50 -21 30 -8 50 -18 50 -27 0 -8 4 -14 9
-14 5 0 13 -9 16 -20 11 -34 55 -71 91 -77 39 -7 46 -23 9 -23 -14 0 -25 5
-25 10 0 6 -7 10 -15 10 -8 0 -15 -7 -15 -15 0 -8 4 -15 9 -15 5 0 12 -11 15
-25 4 -14 26 -44 49 -68 24 -23 46 -50 50 -60 3 -9 11 -17 17 -17 5 0 10 -6
10 -14 0 -8 7 -22 15 -30 9 -9 18 -39 21 -68 2 -29 1 -47 -2 -39 -20 42 -84
70 -84 36 0 -8 4 -15 9 -15 4 0 11 -20 13 -45 6 -47 43 -95 74 -95 7 0 14 -7
14 -15 0 -8 -4 -15 -9 -15 -21 0 -41 13 -41 26 0 8 -7 14 -15 14 -16 0 -21
-36 -6 -42 5 -1 11 -32 14 -68 3 -36 4 -57 1 -47 -3 9 -12 17 -21 17 -12 0
-14 -7 -9 -35 6 -30 4 -35 -12 -35 -37 0 -44 -73 -12 -108 l20 -22 -32 5 c-18
3 -27 3 -20 -1 15 -7 16 -34 1 -34 -6 0 -13 9 -16 20 -3 11 -9 20 -13 20 -4 0
-11 11 -14 25 -9 35 -26 31 -26 -5 0 -16 5 -30 10 -30 6 0 10 -27 10 -60 0
-33 -4 -60 -9 -60 -5 0 -12 -19 -17 -42 -8 -43 -9 -42 -12 25 -1 37 -7 67 -11
67 -5 0 -11 9 -14 21 -3 12 -11 19 -19 16 -15 -5 -13 -50 2 -55 13 -5 13 -72
0 -72 -5 0 -10 7 -10 15 0 8 -6 15 -14 15 -9 0 -15 -19 -19 -61 -3 -34 -10
-65 -15 -68 -5 -3 -13 -17 -17 -31 -7 -23 -59 -78 -121 -127 -33 -27 -44 -29
-44 -7 0 14 -1 14 -16 0 -23 -23 -25 -20 -18 24 5 32 3 40 -9 40 -8 0 -18 -11
-21 -24 -7 -28 -91 -116 -111 -116 -7 0 -20 -6 -27 -14 -8 -7 -24 -17 -36 -20
-17 -6 -22 -3 -22 10 0 13 -5 12 -25 -10 -25 -27 -45 -34 -45 -16 0 6 6 13 14
16 8 3 18 19 21 35 4 16 11 29 17 29 6 0 9 3 5 6 -9 9 -47 -6 -47 -19 0 -18
-60 -81 -68 -72 -4 4 -1 10 6 12 13 5 17 53 3 53 -5 0 -11 18 -15 40 -3 22
-11 40 -16 40 -5 0 -12 11 -16 25 -3 14 -9 25 -13 25 -4 0 -13 16 -21 35 -8
19 -17 35 -21 35 -4 0 -10 14 -14 30 -4 17 -10 30 -15 30 -5 0 -11 14 -15 30
-4 17 -11 30 -16 30 -5 0 -9 29 -9 65 0 36 4 65 9 65 5 0 13 10 17 22 3 12 22
37 40 56 33 34 44 62 24 62 -5 0 -10 -4 -10 -10 0 -5 -13 -10 -30 -10 -37 0
-39 15 -4 24 15 4 32 12 39 19 7 7 27 23 44 37 17 14 31 30 31 37 0 7 5 13 10
13 6 0 10 7 10 15 0 11 -8 15 -27 13 -44 -5 -42 32 3 76 20 20 43 36 49 36 7
0 15 7 19 15 3 8 12 15 21 15 8 0 15 4 15 9 0 5 18 11 39 15 22 3 41 10 43 16
1 5 48 15 103 21 55 7 103 17 107 23 4 6 37 10 78 10 53 -1 70 2 70 12 0 8
-12 17 -26 20 -34 9 -155 -1 -163 -14 -3 -5 -32 -12 -63 -16 -49 -6 -58 -5
-58 8 0 9 4 16 9 16 5 0 12 47 16 105 4 58 10 105 15 105 4 0 11 54 15 120 4
66 11 120 16 120 5 0 9 52 9 115 0 63 -4 115 -9 115 -4 0 -11 27 -15 60 -4 33
-11 60 -16 60 -5 0 -12 11 -16 25 -3 14 -10 25 -15 25 -5 0 -9 6 -9 14 0 8 -6
21 -14 28 -7 8 -19 37 -26 66 -8 29 -17 52 -21 52 -4 0 -11 15 -14 33 -4 17
-12 35 -19 39 -14 9 -14 87 1 96 6 4 15 20 18 35 9 34 23 35 31 2z m-2675
-1476 c7 -32 16 -59 20 -59 4 0 10 -18 14 -40 4 -22 11 -40 15 -40 5 0 12 -20
16 -45 3 -25 10 -45 14 -45 5 0 11 -18 15 -40 4 -22 10 -40 15 -40 4 0 13 -34
21 -75 7 -41 16 -75 21 -75 4 0 10 -22 14 -50 4 -27 10 -50 15 -50 4 0 11 -25
14 -55 4 -30 11 -55 15 -55 4 0 11 -30 15 -67 4 -38 11 -70 15 -73 9 -6 30
-258 30 -370 0 -104 -20 -313 -30 -320 -5 -3 -11 -26 -15 -52 -4 -27 -11 -48
-15 -48 -4 0 -10 41 -14 92 -3 50 -10 94 -16 98 -5 3 -12 25 -16 48 -4 23 -10
42 -14 42 -4 0 -13 25 -20 55 -7 30 -17 55 -21 55 -4 0 -10 13 -14 29 -3 16
-13 32 -21 35 -8 3 -14 12 -14 21 0 8 -4 15 -9 15 -5 0 -12 14 -16 30 -4 17
-11 30 -16 30 -5 0 -14 11 -19 25 -5 14 -14 25 -20 25 -5 0 -10 6 -10 13 0 13
-19 40 -53 77 -8 8 -17 25 -21 37 -4 11 -13 24 -21 27 -8 3 -15 10 -15 16 0 6
-11 21 -25 34 -14 13 -25 29 -25 35 0 6 -7 14 -15 17 -8 4 -15 12 -15 18 0 7
-9 22 -20 34 -11 12 -20 26 -20 32 0 6 -7 13 -15 16 -8 4 -15 11 -15 18 0 6
-8 19 -17 28 -29 27 -43 46 -53 73 -5 14 -14 25 -20 25 -5 0 -10 7 -10 15 0 9
-7 18 -15 21 -8 4 -15 12 -15 19 0 8 -6 20 -12 27 -7 7 -20 27 -28 43 -8 17
-21 34 -27 38 -7 4 -13 12 -13 18 0 9 -8 21 -37 54 -20 21 -15 35 12 35 14 0
25 4 25 9 0 5 18 12 40 16 22 4 40 10 40 15 0 4 20 13 45 20 25 7 45 16 45 21
0 4 13 10 29 14 16 3 32 13 35 21 3 8 12 14 21 14 8 0 15 5 15 11 0 5 14 15
30 20 17 6 30 15 30 20 0 5 8 13 18 16 9 4 38 28 65 55 27 27 53 45 61 42 8
-3 20 -32 27 -65z m3309 -180 c0 -18 -2 -19 -15 -5 -8 8 -15 17 -15 20 0 3 7
6 15 6 9 0 15 -9 15 -21z m-2820 -1209 c3 -4 32 -10 65 -14 100 -12 95 -7 95
-98 l0 -81 -62 7 c-35 4 -65 11 -68 16 -3 4 -23 11 -45 16 -22 4 -42 10 -45
13 -3 3 -14 11 -25 17 -16 9 -21 23 -23 79 l-3 67 53 -7 c29 -4 55 -11 58 -15z
m1040 -910 c3 -4 27 -10 54 -14 28 -3 52 -10 56 -15 3 -5 18 -13 33 -16 15 -4
27 -11 27 -15 0 -5 14 -11 31 -15 17 -4 33 -13 35 -20 3 -7 16 -16 28 -19 12
-3 28 -17 36 -31 7 -14 16 -25 19 -25 14 0 69 -58 75 -78 4 -12 11 -22 16 -22
5 0 14 -16 21 -35 7 -19 16 -35 20 -35 4 0 11 -25 14 -55 4 -30 11 -55 16 -55
5 0 9 -29 9 -65 0 -36 -4 -65 -9 -65 -4 0 -11 -23 -14 -52 -4 -28 -10 -54 -15
-57 -5 -3 -15 -24 -22 -46 -7 -22 -19 -44 -26 -48 -8 -4 -14 -15 -14 -22 0 -8
-4 -15 -9 -15 -5 0 -12 -13 -16 -30 -4 -16 -11 -30 -16 -30 -5 0 -9 -7 -9 -15
0 -9 -6 -18 -14 -21 -8 -3 -20 -19 -26 -35 -7 -16 -16 -29 -21 -29 -5 0 -9 -6
-9 -13 0 -7 -13 -23 -30 -37 -16 -14 -30 -29 -30 -34 0 -11 -175 -186 -187
-186 -5 0 -20 -12 -33 -27 -14 -16 -37 -34 -52 -42 -31 -16 -45 -41 -23 -41 8
0 15 -4 15 -9 0 -5 16 -12 35 -15 19 -4 35 -11 35 -16 0 -6 6 -10 13 -10 16 0
67 -44 67 -59 0 -6 7 -11 15 -11 8 0 15 -6 15 -14 0 -8 7 -16 15 -20 8 -3 15
-12 15 -21 0 -8 4 -15 8 -15 5 0 14 -18 21 -40 6 -22 16 -40 22 -40 15 0 35
22 43 48 4 12 12 22 17 22 5 0 9 6 9 13 0 8 8 23 18 35 44 52 52 63 52 67 0 9
150 155 159 155 4 0 18 9 31 20 13 11 29 20 37 20 7 0 13 4 13 10 0 5 20 15
45 21 25 6 45 15 45 19 0 5 27 11 60 15 33 4 60 11 60 16 0 5 16 9 35 9 19 0
35 -4 35 -9 0 -4 27 -11 60 -14 86 -9 105 -31 105 -120 0 -37 -5 -71 -11 -75
-6 -4 -14 -15 -17 -26 -6 -16 -15 -18 -61 -14 -43 4 -59 10 -81 34 -24 26 -33
29 -88 29 -39 0 -62 -4 -64 -12 -3 -7 -9 -13 -15 -13 -11 0 -34 -19 -109 -94
-27 -27 -49 -53 -49 -58 0 -5 -11 -19 -25 -32 -14 -13 -25 -28 -25 -34 0 -6
-6 -15 -13 -19 -6 -4 -19 -21 -27 -38 -8 -16 -21 -34 -27 -38 -7 -4 -13 -15
-13 -22 0 -8 -4 -15 -9 -15 -5 0 -12 -13 -16 -29 -3 -16 -13 -32 -21 -35 -8
-3 -14 -17 -14 -31 0 -14 -4 -25 -8 -25 -5 0 -14 -32 -21 -70 -18 -98 -2 -166
40 -175 16 -4 29 -11 29 -16 0 -5 7 -9 15 -9 8 0 15 4 15 9 0 5 14 12 31 16
17 4 33 14 37 23 3 10 18 29 33 45 15 15 31 36 34 47 4 11 10 20 15 20 5 0 11
13 15 29 3 16 13 32 21 35 8 3 14 15 14 26 0 11 4 20 10 20 5 0 13 12 16 27 4
16 10 30 13 33 13 11 31 51 31 70 0 11 4 20 10 20 5 0 12 11 16 25 3 14 10 25
14 25 5 0 11 14 15 30 4 16 11 30 16 30 5 0 9 7 9 15 0 9 6 18 14 21 8 3 17
17 21 32 12 47 105 120 105 82 0 -5 12 -10 28 -10 15 0 35 -9 45 -20 18 -21
24 -90 8 -90 -5 0 -12 -20 -15 -45 -4 -25 -11 -45 -16 -45 -5 0 -12 -16 -16
-35 -3 -19 -10 -35 -14 -35 -4 0 -14 -29 -21 -65 -7 -36 -16 -65 -20 -65 -5 0
-11 -23 -15 -50 -4 -27 -10 -50 -15 -50 -5 0 -9 -15 -9 -34 0 -48 32 -58 66
-21 13 14 24 29 24 33 0 4 9 15 20 25 11 9 20 23 20 31 0 8 7 16 15 20 8 3 15
12 15 21 0 8 4 15 8 15 5 0 14 18 21 40 6 22 16 40 21 40 4 0 11 13 15 30 4
16 10 30 15 30 5 0 11 13 15 30 4 16 11 30 16 30 5 0 9 6 9 14 0 8 6 21 13 28
7 7 19 39 27 71 7 31 16 57 21 57 4 0 10 12 14 27 3 15 11 31 16 34 6 3 13 50
15 105 3 54 9 101 14 104 5 3 11 17 15 32 4 15 13 29 21 32 8 3 14 11 14 18 0
8 10 22 23 33 30 27 155 29 180 3 21 -21 23 -94 2 -114 -23 -24 -19 -92 8
-120 12 -13 28 -24 35 -24 6 0 12 -5 12 -10 0 -6 8 -14 18 -17 9 -4 23 -13 30
-20 7 -7 20 -16 28 -21 17 -9 23 -140 7 -151 -6 -3 -13 -23 -17 -44 -4 -20
-11 -37 -15 -37 -5 0 -12 -16 -15 -35 -4 -19 -11 -35 -15 -35 -5 0 -11 -19
-15 -42 -4 -23 -12 -45 -17 -49 -12 -7 -30 -145 -22 -166 3 -7 11 -13 19 -13
8 0 14 -4 14 -10 0 -5 7 -10 15 -10 8 0 15 5 15 11 0 5 13 15 29 20 15 5 34
22 42 37 8 15 20 33 27 40 6 7 12 24 12 38 0 13 4 24 9 24 4 0 11 41 15 92 3
50 10 94 14 97 5 3 14 45 21 94 7 48 17 87 21 87 5 0 11 23 15 50 4 28 11 50
16 50 5 0 9 11 9 24 0 14 6 31 14 38 7 8 16 35 20 61 4 26 11 47 16 47 6 0 13
18 16 41 4 22 13 46 20 54 8 7 14 23 14 35 0 11 6 23 14 26 8 3 17 21 20 40 4
19 11 34 16 34 4 0 11 14 15 30 4 17 10 30 14 30 4 0 13 18 20 40 6 22 16 40
20 40 5 0 12 11 15 25 4 14 11 25 16 25 6 0 10 6 10 14 0 8 6 21 13 28 7 7 19
29 27 48 14 34 21 45 48 75 6 7 12 17 12 22 0 5 8 16 18 25 27 26 42 46 42 57
0 5 9 20 20 33 49 57 60 72 60 79 0 9 33 48 93 109 20 21 37 41 37 44 0 10 74
86 84 86 5 0 19 11 32 25 18 20 33 25 69 25 25 0 45 -4 45 -9 0 -5 11 -12 25
-15 28 -7 75 -48 75 -65 0 -6 4 -11 9 -11 5 0 13 -10 17 -22 4 -13 11 -26 17
-30 14 -8 13 -98 0 -106 -6 -4 -14 -24 -18 -45 -4 -20 -11 -37 -15 -37 -4 0
-10 -18 -14 -40 -3 -22 -10 -40 -15 -40 -4 0 -14 -25 -21 -54 -7 -30 -19 -57
-26 -60 -8 -3 -14 -17 -14 -31 0 -14 -4 -25 -9 -25 -5 0 -12 -11 -15 -25 -4
-14 -10 -25 -15 -25 -5 0 -12 -13 -16 -30 -4 -16 -10 -30 -14 -30 -5 0 -14
-20 -21 -45 -7 -25 -17 -45 -21 -45 -5 0 -9 -6 -9 -14 0 -8 -6 -21 -14 -28 -7
-8 -17 -24 -20 -36 -4 -12 -11 -22 -16 -22 -5 0 -14 -17 -21 -37 -11 -35 -17
-45 -45 -76 -6 -7 -15 -24 -19 -37 -7 -22 -12 -30 -40 -63 -6 -7 -17 -28 -25
-47 -8 -19 -20 -39 -27 -43 -7 -4 -13 -15 -13 -22 0 -8 -4 -15 -10 -15 -5 0
-10 -7 -10 -15 0 -9 -7 -18 -15 -21 -8 -4 -15 -13 -15 -20 0 -8 -7 -17 -15
-20 -8 -4 -15 -12 -15 -20 0 -8 -9 -23 -19 -33 -10 -10 -22 -29 -26 -42 -4
-13 -21 -34 -36 -48 -16 -14 -29 -31 -29 -38 0 -7 -5 -13 -11 -13 -5 0 -15
-13 -20 -30 -6 -16 -15 -30 -20 -30 -5 0 -13 -8 -16 -17 -4 -10 -17 -27 -30
-39 -13 -12 -23 -26 -23 -33 0 -6 -9 -16 -20 -23 -11 -7 -20 -19 -20 -26 0 -6
-9 -20 -20 -29 -11 -10 -20 -21 -20 -26 0 -4 -11 -18 -25 -31 -21 -20 -25 -32
-25 -85 0 -33 4 -61 9 -61 4 0 11 -28 15 -61 6 -65 23 -88 61 -89 20 0 105 79
105 98 0 5 6 12 14 15 8 3 17 19 21 36 4 17 10 31 15 31 5 0 11 14 15 30 4 17
10 30 15 30 4 0 11 12 14 26 4 15 14 33 21 41 8 8 15 25 15 39 0 13 4 24 8 24
14 0 32 101 29 165 -2 51 1 63 21 82 12 13 26 23 31 23 5 0 16 6 24 14 30 31
117 39 117 11 0 -7 5 -15 10 -17 6 -2 13 -27 17 -56 3 -28 9 -52 12 -52 3 0
12 -14 19 -30 11 -23 20 -30 43 -30 16 0 29 4 29 9 0 5 9 11 20 14 11 3 20 12
20 21 0 9 4 16 9 16 5 0 12 11 15 25 4 14 10 25 15 25 5 0 12 13 16 30 4 17
10 30 15 30 4 0 11 16 14 35 4 19 11 35 16 35 5 0 14 16 20 35 6 19 16 35 21
35 5 0 11 11 15 24 3 14 12 27 20 30 8 3 14 12 14 20 0 7 7 16 15 20 8 3 15
12 15 21 0 8 4 15 8 15 5 0 15 11 22 25 7 13 26 29 41 34 16 5 29 15 29 20 0
6 11 13 25 17 18 4 32 0 50 -17 13 -13 25 -28 25 -32 0 -4 14 -21 31 -36 26
-25 30 -33 24 -60 -4 -17 -11 -31 -16 -31 -5 0 -9 -6 -9 -13 0 -15 -19 -40
-70 -96 -49 -53 -70 -83 -70 -97 0 -7 -7 -14 -15 -18 -8 -3 -15 -12 -15 -20 0
-7 -6 -16 -14 -19 -8 -3 -17 -19 -21 -36 -4 -17 -11 -31 -15 -31 -5 0 -12 -16
-16 -35 -3 -19 -10 -35 -14 -35 -5 0 -11 -14 -15 -30 -4 -17 -10 -30 -15 -30
-4 0 -11 -18 -15 -40 -4 -22 -11 -40 -16 -40 -5 0 -9 -25 -9 -55 0 -42 5 -60
20 -75 20 -20 60 -28 60 -11 0 5 18 11 40 15 22 3 40 11 40 16 0 6 7 10 15 10
9 0 31 16 49 35 19 19 38 35 43 35 5 0 16 8 25 19 12 14 16 48 20 145 2 74 8
130 15 134 5 4 16 30 22 59 7 28 19 54 27 57 8 3 14 12 14 21 0 8 4 15 9 15 5
0 13 10 17 22 7 23 19 40 47 66 9 9 17 22 17 29 0 7 9 21 20 30 11 10 20 23
20 30 0 7 5 13 10 13 6 0 14 8 17 17 9 23 35 53 47 53 5 0 24 16 43 35 19 19
39 35 45 35 6 0 16 7 23 17 23 32 195 25 195 -8 0 -5 5 -9 12 -9 6 0 30 -19
52 -42 40 -42 41 -45 40 -111 0 -38 -5 -72 -11 -75 -5 -4 -15 -28 -23 -54 -7
-27 -17 -48 -21 -48 -5 0 -9 -6 -9 -13 0 -8 -9 -24 -20 -37 -11 -13 -20 -29
-20 -35 0 -7 -7 -15 -15 -19 -8 -3 -15 -10 -15 -16 0 -5 -9 -19 -20 -30 -11
-11 -20 -27 -20 -35 0 -8 -4 -15 -8 -15 -12 0 -82 -69 -82 -80 0 -10 -129
-140 -140 -140 -4 0 -13 -11 -20 -25 -7 -14 -20 -25 -28 -25 -18 0 -8 -66 14
-87 7 -8 17 -21 22 -30 11 -18 109 -23 120 -6 4 6 20 15 35 18 15 4 27 11 27
16 0 5 7 9 15 9 7 0 18 6 22 13 4 6 22 19 38 27 17 8 36 21 43 28 7 6 20 12
28 12 8 0 14 5 14 10 0 6 7 13 17 17 9 3 31 21 50 40 19 18 40 33 47 33 7 0
18 11 25 24 7 13 25 30 40 37 31 16 101 85 101 99 0 6 7 10 15 10 8 0 15 5 15
11 0 6 18 28 40 49 22 21 40 42 40 46 0 8 15 28 60 81 5 7 10 17 10 23 0 19
35 9 55 -16 11 -14 28 -34 38 -46 9 -12 17 -29 17 -40 0 -10 5 -18 10 -18 6 0
10 -20 10 -45 0 -25 -4 -45 -9 -45 -5 0 -13 -10 -17 -22 -7 -23 -225 -248
-241 -248 -4 0 -19 -12 -32 -25 -13 -14 -27 -25 -33 -25 -5 0 -19 -11 -32 -25
-13 -14 -27 -25 -32 -25 -5 0 -20 -12 -33 -25 -13 -14 -29 -25 -36 -25 -7 0
-15 -7 -19 -15 -3 -8 -12 -15 -21 -15 -8 0 -15 -4 -15 -9 0 -5 -13 -12 -30
-16 -16 -4 -30 -10 -30 -14 0 -5 -21 -14 -47 -21 -27 -8 -51 -18 -55 -24 -10
-15 -256 -15 -266 0 -4 6 -25 17 -47 24 -22 7 -44 19 -48 26 -4 8 -12 14 -18
14 -5 0 -26 16 -46 35 -20 19 -40 35 -45 35 -11 0 -48 -21 -66 -38 -7 -6 -20
-12 -28 -12 -8 0 -14 -4 -14 -10 0 -5 -6 -10 -14 -10 -8 0 -21 -7 -30 -15 -19
-19 -146 -33 -206 -23 -24 4 -48 14 -52 23 -5 8 -14 15 -21 15 -7 0 -25 16
-42 36 -16 19 -39 45 -50 57 -16 18 -21 39 -23 108 l-4 87 -45 6 c-24 3 -51
12 -59 20 -26 26 -42 8 -49 -55 -4 -32 -10 -59 -14 -59 -4 0 -14 -18 -21 -40
-7 -22 -17 -40 -22 -40 -4 0 -8 -11 -8 -25 0 -14 -6 -28 -14 -31 -8 -3 -18
-19 -21 -35 -4 -16 -11 -29 -16 -29 -5 0 -9 -7 -9 -15 0 -7 -6 -18 -13 -22 -6
-4 -19 -21 -27 -37 -19 -38 -98 -117 -136 -136 -16 -8 -32 -19 -35 -24 -9 -12
-149 -11 -158 1 -3 6 -17 14 -31 18 -27 8 -100 76 -100 93 0 5 -7 12 -15 16
-8 3 -15 16 -15 30 0 14 -7 31 -15 40 -8 8 -15 24 -15 35 0 12 -6 21 -15 21
-8 0 -15 -4 -15 -9 0 -5 -11 -12 -25 -15 -14 -4 -25 -11 -25 -16 0 -6 -27 -10
-60 -10 -33 0 -60 4 -60 10 0 6 -9 10 -19 10 -11 0 -26 7 -35 15 -8 8 -18 15
-21 15 -12 0 -65 55 -65 67 0 6 -5 13 -11 15 -5 2 -13 22 -16 46 -3 23 -10 42
-14 42 -5 0 -9 14 -9 30 0 17 4 30 9 30 4 0 11 30 14 66 3 37 9 69 15 73 5 3
12 20 15 36 12 63 20 90 28 96 5 3 12 26 15 52 6 40 3 50 -17 71 -28 29 -46
24 -54 -15 -4 -16 -11 -29 -15 -29 -5 0 -12 -16 -16 -35 -3 -19 -10 -35 -15
-35 -4 0 -11 -16 -15 -36 -4 -19 -13 -38 -20 -41 -8 -3 -14 -16 -14 -29 0 -14
-6 -27 -14 -30 -8 -3 -17 -21 -20 -40 -4 -19 -11 -34 -16 -34 -6 0 -10 -6 -10
-14 0 -8 -6 -21 -14 -28 -7 -8 -17 -29 -21 -47 -4 -18 -13 -35 -21 -38 -8 -3
-14 -12 -14 -19 0 -8 -6 -17 -14 -20 -8 -3 -17 -16 -20 -30 -4 -13 -11 -24
-16 -24 -6 0 -10 -7 -10 -15 0 -7 -6 -18 -13 -22 -6 -4 -18 -20 -26 -36 -8
-15 -25 -30 -38 -33 -13 -4 -23 -10 -23 -14 0 -5 -26 -14 -57 -20 -43 -9 -66
-9 -96 0 -41 12 -87 53 -87 76 0 8 -4 14 -9 14 -5 0 -12 16 -15 35 -8 43 -21
45 -35 5 -5 -17 -15 -30 -20 -30 -6 0 -11 -5 -11 -11 0 -7 -15 -27 -32 -44
-18 -18 -42 -45 -53 -60 -31 -44 -43 -53 -75 -60 -16 -4 -30 -11 -30 -16 0 -5
-25 -9 -55 -9 -30 0 -55 5 -55 10 0 6 -6 10 -13 10 -7 0 -23 9 -35 20 -12 11
-25 20 -30 20 -5 0 -18 12 -28 26 -10 14 -24 32 -31 39 -7 7 -15 24 -19 39 -9
39 -31 32 -38 -13 -3 -21 -13 -41 -21 -45 -8 -3 -15 -12 -15 -21 0 -8 -4 -15
-8 -15 -4 0 -14 -16 -21 -35 -7 -19 -17 -35 -22 -35 -5 0 -9 -6 -9 -13 0 -7
-8 -20 -17 -29 -24 -21 -53 -60 -53 -70 0 -14 -91 -98 -106 -98 -8 0 -14 -7
-14 -15 0 -8 -4 -15 -10 -15 -5 0 -22 -13 -37 -28 -16 -16 -36 -31 -45 -35
-10 -3 -18 -11 -18 -17 0 -5 -6 -10 -13 -10 -8 0 -24 -9 -37 -20 -12 -11 -39
-23 -59 -26 -19 -4 -42 -13 -49 -21 -7 -7 -26 -13 -42 -13 -16 0 -30 -4 -32
-10 -4 -14 -218 -17 -226 -3 -4 6 -19 14 -34 18 -15 4 -29 13 -32 21 -3 8 -12
14 -19 14 -16 0 -67 44 -67 58 0 5 -9 19 -20 32 -11 13 -20 29 -20 37 0 7 -6
13 -14 13 -13 0 -26 -41 -26 -83 0 -11 -12 -31 -27 -45 -25 -23 -32 -24 -105
-20 -75 5 -79 6 -115 43 l-38 39 1 114 c0 67 4 116 11 120 5 4 13 31 16 61 4
30 10 57 15 60 5 3 12 28 16 55 3 28 10 52 14 55 9 7 32 115 32 149 0 12 4 22
9 22 5 0 12 27 16 60 4 33 11 60 15 60 5 0 12 25 15 55 4 30 10 55 14 55 4 0
14 36 21 80 7 44 17 80 21 80 4 0 11 25 14 55 4 30 11 55 16 55 4 0 11 23 15
50 4 28 10 50 14 50 5 0 11 27 15 60 4 33 11 60 15 60 4 0 14 38 21 85 7 47
16 85 20 85 5 0 11 23 15 50 4 28 10 50 15 50 4 0 11 25 14 55 4 30 11 55 16
55 4 0 11 21 15 48 4 26 11 49 15 52 5 3 14 41 20 83 6 42 15 77 19 77 5 0 12
25 15 55 4 30 11 55 16 55 5 0 9 5 9 10 0 6 -7 10 -15 10 -8 0 -15 -4 -15 -9
0 -5 -16 -12 -35 -15 -19 -4 -35 -11 -35 -16 0 -4 -13 -11 -30 -15 -16 -4 -30
-10 -30 -14 0 -5 -20 -14 -45 -21 -25 -7 -45 -16 -45 -20 0 -4 -12 -11 -26
-14 -15 -4 -33 -14 -41 -21 -15 -16 -50 -19 -77 -9 -11 4 -16 19 -16 50 0 24
4 44 9 44 5 0 11 23 15 50 4 28 11 50 16 50 6 0 10 7 10 15 0 9 6 18 13 21 8
3 20 20 27 39 8 19 18 35 23 35 4 0 14 6 22 13 30 28 56 47 65 47 6 0 13 6 16
14 3 8 19 18 35 21 16 4 29 10 29 14 0 4 16 13 35 21 19 8 35 17 35 21 0 4 16
10 35 13 19 4 35 11 35 16 0 5 16 12 35 16 19 3 35 9 35 13 0 3 26 12 58 20
31 7 60 17 63 23 3 5 25 12 48 15 22 3 41 9 41 13 0 5 32 11 70 15 39 4 70 11
70 16 0 16 278 16 290 -1z m-1260 -30 c0 -4 20 -11 45 -14 25 -4 45 -11 45
-16 0 -4 32 -14 70 -21 39 -7 70 -15 70 -19 0 -4 25 -11 55 -15 30 -3 55 -11
55 -16 0 -5 -6 -9 -14 -9 -8 0 -21 -6 -28 -12 -7 -7 -26 -20 -42 -28 -44 -22
-134 -115 -142 -144 -3 -14 -10 -26 -14 -26 -4 0 -11 -15 -14 -34 -4 -19 -12
-36 -18 -38 -15 -5 -17 -216 -2 -226 6 -4 13 -15 17 -24 3 -10 13 -18 21 -18
7 0 17 -7 20 -16 5 -14 17 -16 68 -11 33 3 64 10 67 15 3 5 17 13 31 17 14 4
27 11 30 16 3 4 18 11 33 14 21 6 27 4 27 -9 0 -9 -4 -16 -8 -16 -5 0 -14 -36
-21 -80 -8 -44 -17 -80 -21 -80 -5 0 -12 -25 -15 -55 -4 -30 -11 -55 -15 -55
-4 0 -10 -22 -14 -50 -4 -27 -11 -50 -15 -50 -5 0 -12 -25 -16 -55 -3 -30 -10
-55 -14 -55 -4 0 -13 -35 -19 -77 -7 -42 -16 -80 -21 -83 -4 -3 -11 -27 -15
-54 -3 -28 -10 -52 -15 -55 -5 -4 -12 -32 -16 -63 -4 -32 -11 -58 -15 -58 -5
0 -14 -34 -21 -75 -6 -41 -15 -75 -19 -75 -5 0 -11 -27 -15 -60 -4 -33 -11
-60 -15 -60 -4 0 -11 -25 -15 -55 -3 -30 -10 -55 -15 -55 -4 0 -11 -22 -15
-50 -4 -27 -10 -50 -14 -50 -4 0 -12 -37 -20 -82 -7 -46 -16 -85 -21 -88 -4
-3 -11 -30 -15 -60 -4 -30 -12 -58 -17 -61 -5 -3 -12 -56 -15 -117 -6 -109 -7
-112 -29 -112 -13 0 -24 4 -24 9 0 5 -22 12 -50 16 -27 4 -50 10 -50 15 0 4
-16 11 -35 14 -19 4 -35 10 -35 15 0 4 -22 13 -50 20 -27 7 -50 17 -50 22 0 5
-9 9 -19 9 -11 0 -26 7 -35 15 -8 8 -19 15 -24 15 -5 0 -19 9 -32 20 -13 11
-28 20 -34 20 -6 0 -19 8 -27 18 -13 15 -17 59 -22 217 -4 109 -11 201 -16
205 -20 11 -33 357 -22 535 6 93 15 172 20 175 5 3 12 38 16 78 4 39 11 72 15
72 5 0 12 25 15 55 4 30 11 55 16 55 4 0 11 20 15 45 3 25 10 45 14 45 4 0 12
25 19 55 7 30 16 55 21 55 5 0 12 16 16 35 3 19 10 35 14 35 5 0 11 14 15 30
4 17 10 30 15 30 5 0 11 14 15 30 4 17 10 30 15 30 5 0 14 16 20 35 6 19 16
35 21 35 5 0 9 6 9 13 0 8 9 24 20 37 11 13 20 29 20 37 0 7 4 13 8 13 4 0 14
16 21 35 7 19 17 35 22 35 5 0 9 6 9 13 0 8 9 24 20 37 11 13 20 29 20 35 0 7
7 15 15 19 8 3 15 12 15 21 0 8 4 15 8 15 5 0 14 16 22 35 8 19 17 35 22 35 4
0 8 7 8 15 0 9 7 18 15 21 8 4 15 12 15 19 0 24 28 43 54 38 14 -3 26 -9 26
-13z m4500 -539 c0 -5 13 -11 28 -14 16 -3 34 -17 41 -30 7 -14 24 -30 36 -37
17 -9 25 -25 30 -57 7 -48 -1 -103 -16 -103 -5 0 -9 -7 -9 -15 0 -9 -7 -18
-15 -21 -8 -4 -15 -12 -15 -19 0 -11 -39 -55 -86 -97 -11 -9 -30 -28 -43 -42
-13 -14 -29 -26 -37 -26 -8 0 -14 -5 -14 -11 0 -16 -56 -69 -74 -69 -9 0 -16
4 -16 9 0 5 -11 12 -25 15 -37 9 -62 39 -76 88 -7 24 -18 46 -24 50 -6 5 -6 8
3 8 7 0 12 13 12 33 0 45 20 111 36 120 8 4 14 15 14 22 0 8 5 15 10 15 6 0
14 8 17 18 9 23 107 122 121 122 7 0 12 4 12 10 0 5 16 12 35 16 19 3 35 10
35 15 0 5 5 9 10 9 6 0 10 -4 10 -9z m-2520 -921 c0 -16 -4 -30 -9 -30 -5 0
-12 -13 -16 -30 -4 -16 -10 -30 -15 -30 -4 0 -13 -22 -20 -49 -6 -27 -18 -52
-26 -55 -8 -3 -14 -12 -14 -20 0 -7 -7 -16 -15 -20 -8 -3 -15 -12 -15 -21 0
-8 -4 -15 -9 -15 -5 0 -12 -16 -15 -35 -4 -19 -11 -35 -16 -35 -6 0 -10 -8
-10 -17 0 -23 -22 -83 -31 -83 -4 0 -10 -11 -13 -25 -4 -14 -10 -25 -15 -25
-5 0 -19 -11 -32 -24 -28 -29 -46 -24 -54 15 -4 16 -11 29 -16 29 -5 0 -9 14
-9 30 0 17 4 30 9 30 5 0 12 16 15 35 4 19 10 35 15 35 4 0 14 18 21 40 7 22
17 40 22 40 4 0 8 6 8 13 0 14 25 50 53 75 9 9 17 22 17 30 0 7 7 15 15 18 8
3 17 15 21 27 6 19 62 77 75 77 3 0 12 11 19 25 8 16 22 25 37 25 19 0 23 -5
23 -30z m-26 -755 c2 -7 18 -16 35 -20 17 -4 31 -10 31 -15 0 -5 20 -12 45
-16 28 -4 45 -11 45 -20 0 -8 -4 -14 -9 -14 -6 0 -13 -20 -17 -45 -3 -25 -10
-45 -15 -45 -5 0 -9 -7 -9 -15 0 -8 -9 -20 -20 -27 -11 -7 -20 -18 -20 -25 0
-7 -5 -13 -10 -13 -6 0 -21 -10 -33 -23 -27 -27 -69 -47 -102 -47 -14 0 -25
-4 -25 -9 0 -5 -20 -12 -45 -15 -25 -4 -45 -11 -45 -15 0 -5 -25 -12 -55 -16
-30 -3 -55 -10 -55 -14 0 -9 -170 -35 -177 -27 -3 3 -8 37 -11 76 -2 38 -9 70
-13 70 -5 0 -9 13 -9 30 0 27 4 30 40 36 22 4 40 10 40 15 0 5 7 9 15 9 7 0
18 8 24 17 7 14 26 18 85 21 42 2 76 8 76 12 0 4 16 11 36 14 19 4 38 14 41
22 3 7 11 14 17 14 16 0 106 84 106 99 0 14 27 3 34 -14z m-499 -75 c7 0 20
-6 27 -13 7 -7 21 -16 31 -20 29 -11 19 -34 -18 -41 -19 -4 -35 -11 -35 -16 0
-5 -20 -12 -45 -16 -25 -3 -45 -10 -45 -15 0 -5 -9 -9 -21 -9 -17 0 -19 4 -13
23 3 12 13 26 20 30 8 4 14 12 14 18 0 5 10 20 23 32 13 12 27 31 32 42 7 18
9 18 12 3 3 -10 11 -18 18 -18z"/>
<path d="M4048 9833 c-10 -2 -18 -9 -18 -14 0 -5 -11 -14 -25 -19 -14 -5 -25
-14 -25 -19 0 -5 -11 -12 -25 -15 -14 -4 -25 -11 -25 -16 0 -6 -7 -10 -15 -10
-8 0 -19 -9 -25 -20 -6 -11 -17 -20 -25 -20 -7 0 -27 -13 -43 -30 -17 -16 -34
-30 -38 -30 -3 0 -21 -15 -38 -34 -18 -18 -41 -36 -53 -40 -11 -3 -26 -18 -33
-31 -7 -14 -17 -25 -21 -25 -3 0 -25 -18 -47 -40 -22 -22 -45 -40 -51 -40 -6
0 -11 -7 -11 -15 0 -8 -5 -15 -11 -15 -6 0 -55 -44 -109 -97 -54 -54 -106
-105 -116 -114 -11 -9 -27 -25 -36 -35 -9 -10 -35 -36 -57 -58 -23 -21 -41
-42 -41 -46 0 -4 -13 -13 -30 -19 -16 -5 -30 -15 -30 -20 0 -6 -11 -13 -24
-17 -13 -3 -29 -16 -36 -28 -6 -13 -30 -29 -51 -36 -21 -7 -39 -16 -39 -21 0
-4 -11 -10 -25 -13 -14 -4 -25 -10 -25 -15 0 -5 -13 -12 -30 -16 -16 -4 -30
-10 -30 -15 0 -4 -33 -14 -72 -21 -40 -7 -75 -16 -78 -20 -3 -4 -58 -11 -123
-15 -79 -5 -116 -11 -114 -18 5 -14 276 -13 285 1 4 6 28 13 55 17 26 4 47 11
47 16 0 4 23 13 50 20 28 7 50 16 50 21 0 5 7 9 15 9 9 0 18 7 21 15 4 8 11
15 18 15 12 0 44 21 76 52 10 9 27 19 39 23 12 3 21 11 21 16 0 5 8 13 17 16
9 4 39 28 66 55 27 26 53 48 58 48 5 0 9 7 9 15 0 8 6 15 14 15 16 0 59 41 91
86 26 36 86 94 97 94 5 0 58 49 118 109 59 60 117 112 128 115 10 4 25 17 31
30 7 13 24 30 37 37 13 7 24 16 24 21 0 4 6 8 13 8 7 0 24 12 37 28 14 15 37
33 53 41 15 8 27 18 27 23 0 4 6 8 13 8 7 0 20 8 29 18 28 30 60 51 89 57 38
9 47 35 11 34 -15 -1 -35 -3 -44 -6z"/>
<path d="M3650 8475 c0 -8 -4 -15 -10 -15 -13 0 -13 -197 -1 -202 5 -1 13 -31
17 -66 6 -59 5 -64 -15 -69 -11 -3 -21 -9 -21 -14 0 -5 -11 -9 -24 -9 -35 0
-56 -10 -56 -27 0 -12 10 -14 53 -8 28 4 56 14 60 21 5 8 17 23 28 33 17 15
19 26 13 57 -4 22 -12 42 -18 46 -7 5 -11 53 -11 138 0 71 -3 130 -7 130 -5 0
-8 -7 -8 -15z"/>
<path d="M3402 8144 c3 -16 14 -20 62 -22 55 -3 57 -2 42 14 -10 9 -38 19 -63
22 -40 4 -45 3 -41 -14z"/>
<path d="M3030 7990 c0 -15 23 -54 38 -63 6 -4 12 -13 12 -20 1 -18 127 -127
148 -127 6 0 12 -4 12 -10 0 -5 7 -10 15 -10 9 0 18 -6 21 -14 3 -8 25 -17 50
-21 24 -3 44 -10 44 -16 0 -5 34 -9 75 -9 41 0 75 4 75 9 0 5 16 12 35 15 19
4 35 11 35 16 0 6 5 10 11 10 14 0 99 83 99 96 0 16 -36 42 -69 49 -17 4 -31
10 -31 15 0 4 -28 11 -62 14 -35 4 -66 12 -69 17 -7 12 -162 28 -266 29 -39 0
-73 4 -75 9 -5 13 -98 24 -98 11z m230 -49 c0 -5 43 -11 95 -13 69 -2 98 -7
104 -17 6 -9 32 -16 68 -19 32 -3 60 -8 63 -11 3 -4 21 -12 40 -18 31 -10 23
-11 -62 -12 -97 -1 -238 17 -238 30 0 4 -20 10 -45 13 -25 4 -45 11 -45 15 0
5 -16 12 -35 15 -50 10 -43 26 10 26 25 0 45 -4 45 -9z m-92 -37 c7 -8 20 -14
28 -14 8 0 14 -4 14 -8 0 -4 28 -14 62 -21 35 -7 65 -17 68 -22 3 -4 38 -11
78 -15 40 -4 72 -11 72 -15 0 -13 127 -11 133 1 3 6 4 5 3 -2 -1 -6 -15 -16
-32 -21 -16 -6 -32 -15 -36 -21 -10 -15 -216 -15 -226 0 -4 6 -25 17 -47 24
-22 7 -44 19 -48 26 -4 8 -13 14 -19 14 -5 0 -33 23 -61 51 -40 40 -46 50 -27
44 13 -4 30 -14 38 -21z"/>
<path d="M3470 3767 c-14 -6 -29 -17 -33 -24 -4 -7 -14 -13 -21 -13 -8 0 -16
-7 -20 -15 -3 -8 -12 -15 -21 -15 -8 0 -15 -4 -15 -9 0 -4 -21 -14 -47 -21
-27 -8 -51 -18 -54 -23 -3 -5 -52 -11 -108 -14 -55 -3 -101 -10 -101 -15 0
-25 31 -38 94 -38 36 0 66 4 66 9 0 5 23 11 50 15 28 4 50 11 50 16 0 4 14 11
30 15 17 4 30 11 30 16 0 5 6 9 13 9 7 0 23 9 35 20 12 11 24 20 28 20 8 0 74
66 74 75 0 8 -23 5 -50 -8z"/>
<path d="M3258 3763 c-10 -2 -18 -8 -18 -13 0 -5 -13 -11 -30 -15 -16 -4 -30
-10 -30 -15 0 -4 -18 -11 -40 -15 -22 -4 -40 -10 -40 -14 0 -4 -40 -13 -90
-20 -69 -10 -90 -16 -90 -28 0 -14 12 -15 92 -9 51 4 95 10 98 15 3 4 31 13
63 20 31 7 57 17 57 22 0 5 7 9 15 9 9 0 18 7 21 15 4 8 11 15 18 15 6 0 19 9
29 20 16 19 16 20 -11 19 -15 -1 -35 -3 -44 -6z"/>
<path d="M3530 3650 c0 -5 -6 -10 -13 -10 -7 0 -20 -8 -28 -18 -13 -15 -13
-20 -3 -30 16 -15 22 -15 39 1 8 6 21 18 30 25 21 18 19 42 -5 42 -11 0 -20
-4 -20 -10z"/>
<path d="M3500 3521 c0 -5 -29 -13 -65 -16 -36 -4 -65 -11 -65 -16 0 -5 -58
-9 -129 -9 -76 0 -132 -4 -136 -10 -3 -5 3 -10 14 -10 12 0 21 -4 21 -10 0 -6
48 -10 125 -10 69 0 125 4 125 8 0 5 28 14 62 20 62 12 80 24 71 49 -6 15 -23
18 -23 4z"/>
<path d="M3473 2563 c-18 -2 -33 -8 -33 -12 0 -5 -23 -11 -52 -14 -28 -4 -54
-10 -57 -15 -3 -5 -34 -15 -68 -22 -35 -7 -63 -16 -63 -21 0 -4 -16 -11 -35
-15 -19 -3 -35 -10 -35 -14 0 -4 -20 -13 -45 -20 -25 -7 -45 -17 -45 -21 0 -5
-6 -9 -14 -9 -40 0 -29 -52 14 -70 16 -7 32 -22 36 -34 4 -11 12 -24 18 -28
14 -9 13 -188 -1 -197 -6 -3 -13 -33 -17 -66 -4 -33 -11 -61 -16 -63 -5 -2
-14 -37 -21 -78 -6 -41 -15 -74 -19 -74 -4 0 -10 -22 -14 -50 -4 -27 -10 -50
-15 -50 -5 0 -11 -27 -15 -60 -4 -33 -11 -60 -15 -60 -5 0 -11 -24 -14 -52 -4
-29 -11 -54 -17 -56 -5 -2 -10 -13 -10 -24 0 -19 4 -20 52 -14 29 4 55 11 58
15 3 5 38 14 78 21 39 6 72 15 72 20 0 4 12 11 26 14 15 4 32 12 39 19 7 7 25
21 41 32 15 11 33 26 40 33 7 6 17 12 22 12 4 0 22 16 38 35 16 19 34 35 40
35 14 0 204 186 204 200 0 5 4 10 8 10 5 0 15 12 23 27 8 16 24 37 37 49 12
12 22 27 22 33 0 6 6 14 14 17 8 3 18 19 21 36 4 16 13 32 21 35 8 3 14 11 14
18 0 8 6 20 14 27 7 8 17 29 21 46 3 18 10 32 15 32 4 0 11 18 15 40 4 22 11
40 16 40 5 0 9 29 9 65 0 36 -4 65 -9 65 -5 0 -12 13 -16 29 -3 16 -13 32 -21
35 -8 3 -14 12 -14 21 0 8 -6 15 -13 15 -8 0 -24 9 -37 20 -13 11 -29 20 -36
20 -7 0 -14 5 -16 11 -4 12 -187 21 -245 12z m240 -135 c37 -36 37 -37 37
-117 0 -45 -4 -81 -10 -81 -5 0 -12 -16 -16 -35 -3 -19 -10 -35 -14 -35 -5 0
-11 -13 -15 -30 -4 -16 -11 -30 -16 -30 -6 0 -15 -13 -20 -29 -13 -38 -28 -40
-276 -48 l-203 -6 0 27 c0 14 4 26 9 26 5 0 12 47 16 105 7 105 7 106 -19 132
-40 39 -30 63 25 63 10 0 19 4 19 10 0 5 23 12 50 16 28 4 50 10 50 14 0 5 32
14 70 20 39 6 70 16 70 20 0 12 52 18 135 16 66 -1 72 -3 108 -38z m-119 -442
c-3 -8 -12 -17 -20 -20 -8 -3 -14 -12 -14 -21 0 -8 -5 -15 -10 -15 -6 0 -16
-12 -23 -27 -6 -16 -25 -39 -41 -53 -16 -14 -45 -42 -65 -62 -20 -21 -40 -38
-44 -38 -4 0 -31 -22 -59 -50 -28 -27 -57 -50 -64 -50 -8 0 -14 -4 -14 -9 0
-5 -13 -12 -29 -16 -16 -3 -32 -13 -35 -21 -3 -8 -15 -14 -26 -14 -16 0 -20 6
-20 34 0 19 -5 36 -11 38 -15 5 -17 127 -2 136 6 4 14 33 18 65 4 31 11 57 15
57 5 0 10 9 12 20 3 20 11 21 167 24 98 2 166 8 170 14 3 6 22 12 41 15 19 2
40 5 47 5 7 1 10 -4 7 -12z m-514 -396 c0 -20 -5 -30 -15 -30 -18 0 -20 26 -2
45 17 19 17 19 17 -15z"/>
<path d="M6066 2295 c-25 -25 -46 -49 -46 -53 0 -4 -9 -15 -20 -25 -11 -9 -20
-24 -20 -32 0 -8 -5 -15 -10 -15 -6 0 -15 -11 -20 -25 -5 -14 -14 -25 -19 -25
-5 0 -12 -11 -15 -25 -4 -14 -11 -25 -16 -25 -6 0 -10 -6 -10 -13 0 -8 -9 -24
-20 -37 -11 -13 -20 -29 -20 -37 0 -7 -4 -13 -8 -13 -5 0 -15 -18 -22 -40 -7
-22 -17 -40 -21 -40 -4 0 -10 -13 -14 -30 -4 -16 -11 -30 -15 -30 -5 0 -12
-16 -16 -35 -3 -19 -10 -35 -14 -35 -5 0 -11 -13 -15 -30 -4 -16 -10 -30 -15
-30 -4 0 -13 -22 -20 -50 -7 -27 -16 -50 -20 -50 -5 0 -11 -18 -15 -40 -4 -22
-11 -40 -15 -40 -5 0 -12 -16 -16 -35 -3 -19 -9 -35 -13 -35 -4 0 -13 -28 -20
-62 -7 -35 -16 -65 -21 -68 -4 -3 -11 -24 -15 -48 -7 -43 -7 -44 14 -26 12 10
21 23 21 29 0 6 9 18 20 28 11 9 20 23 20 31 0 8 7 16 15 20 8 3 15 12 15 21
0 8 4 15 8 15 5 0 14 16 22 35 7 19 19 36 27 39 7 3 13 12 13 21 0 8 5 15 10
15 6 0 10 6 10 13 0 8 9 25 20 38 11 13 23 29 28 34 5 6 12 23 15 37 4 15 14
33 22 41 7 8 17 26 21 41 3 14 10 26 14 26 5 0 11 14 15 30 4 17 11 30 16 30
5 0 9 7 9 15 0 9 6 18 13 21 8 3 20 27 27 54 8 28 17 50 21 50 4 0 10 14 14
30 4 17 10 30 15 30 4 0 11 16 14 35 4 19 11 35 15 35 5 0 12 16 15 35 4 19
11 35 16 35 5 0 14 25 21 55 7 30 15 55 19 55 9 0 24 89 17 97 -3 2 -26 -16
-51 -42z"/>
<path d="M7110 1489 c-14 -16 -34 -32 -46 -35 -12 -3 -27 -16 -34 -30 -8 -13
-17 -24 -22 -24 -4 0 -8 -7 -8 -15 0 -8 -9 -19 -20 -25 -11 -6 -20 -17 -20
-25 0 -8 -4 -15 -10 -15 -5 0 -12 -11 -16 -24 -3 -14 -12 -27 -19 -30 -8 -3
-17 -21 -21 -40 -3 -20 -10 -36 -15 -36 -4 0 -11 -16 -15 -35 -3 -19 -10 -35
-15 -35 -5 0 -9 -13 -9 -30 0 -16 5 -30 11 -30 6 0 36 25 66 55 31 30 59 55
64 55 5 0 11 11 15 25 3 14 10 25 15 25 5 0 14 11 19 25 5 14 14 25 20 25 5 0
12 11 16 25 3 14 10 25 15 25 5 0 9 7 9 15 0 9 7 18 15 21 8 4 15 14 15 24 0
10 7 26 16 35 9 9 19 36 22 61 6 53 -11 58 -48 13z"/>
<path d="M3233 1257 c-18 -5 -33 -13 -33 -18 0 -4 -13 -10 -30 -14 -16 -4 -30
-10 -30 -15 0 -4 -19 -11 -42 -15 -24 -4 -45 -11 -48 -16 -3 -4 -48 -13 -100
-20 -52 -6 -96 -13 -98 -14 -2 -2 -5 -20 -8 -41 -3 -22 -9 -40 -14 -42 -6 -2
-10 -15 -10 -29 0 -39 -23 -153 -30 -153 -4 0 -10 -25 -13 -57 -3 -31 -10 -59
-15 -62 -5 -3 -13 -33 -17 -66 -4 -33 -12 -63 -19 -67 -7 -5 -5 -8 7 -8 9 0
25 9 34 20 10 11 21 20 26 20 4 0 21 13 37 30 16 16 33 30 38 30 5 0 19 9 32
20 13 11 29 20 37 20 7 0 13 4 13 9 0 4 21 14 48 21 26 8 50 18 54 24 10 15
266 15 276 0 4 -6 24 -17 45 -23 20 -7 37 -17 37 -22 0 -5 11 -11 24 -15 14
-3 27 -12 30 -20 3 -8 16 -14 29 -14 19 0 25 8 35 45 7 25 12 54 12 65 0 11 4
20 9 20 5 0 12 24 16 53 4 28 13 55 19 60 8 5 8 9 0 15 -6 4 -14 36 -17 72 -3
35 -10 66 -16 68 -6 2 -11 9 -11 15 0 18 -76 86 -105 93 -14 3 -25 10 -25 14
0 5 -21 11 -47 15 -27 3 -59 7 -73 9 -14 2 -40 -1 -57 -7z m77 -75 c0 -5 18
-14 40 -21 22 -6 40 -15 40 -19 0 -6 21 -34 62 -81 8 -9 13 -46 13 -95 0 -71
-2 -81 -19 -84 -24 -5 -136 20 -136 30 0 4 -8 8 -19 8 -21 0 -31 35 -31 111 0
27 -4 49 -10 49 -5 0 -10 18 -10 40 0 29 4 40 15 40 9 0 18 7 21 15 6 16 34
21 34 7z m-110 -78 c0 -19 -37 -54 -57 -54 -7 0 -13 -4 -13 -9 0 -5 -10 -13
-22 -17 -31 -9 -37 -21 -32 -63 2 -20 1 -28 -2 -18 -7 21 -34 23 -34 1 0 -9
-9 -18 -20 -21 -11 -3 -20 -9 -20 -13 0 -5 -13 -13 -30 -19 -16 -5 -30 -15
-30 -20 0 -6 -7 -11 -15 -11 -13 0 -14 10 -9 58 4 31 11 59 16 60 4 2 8 18 8
36 0 41 29 66 79 66 54 0 145 18 149 30 6 17 32 11 32 -6z m10 -129 c0 -41 -2
-45 -24 -45 -13 0 -27 6 -30 13 -5 9 -7 9 -12 0 -4 -10 -8 -10 -18 0 -11 9 -7
18 18 43 46 48 66 44 66 -11z"/>
<path d="M3280 641 c0 -4 -31 -12 -70 -15 -38 -4 -70 -11 -70 -16 0 -4 -12
-11 -27 -15 -15 -3 -35 -13 -43 -21 -30 -29 -75 -64 -82 -64 -5 0 -8 -6 -8
-14 0 -8 -6 -21 -14 -28 -7 -8 -17 -24 -20 -36 -4 -12 -12 -22 -17 -22 -5 0
-9 -21 -9 -46 0 -38 5 -51 32 -77 27 -27 38 -32 76 -30 25 1 48 6 51 12 3 5
19 13 34 16 15 4 27 11 27 15 0 4 14 13 30 20 17 7 30 16 30 21 0 5 5 9 11 9
17 0 159 147 159 164 0 9 5 16 10 16 6 0 10 11 10 25 0 30 -43 75 -71 75 -11
0 -19 5 -19 10 0 6 -4 10 -10 10 -5 0 -10 -4 -10 -9z m-13 -97 c4 -10 -14 -33
-53 -69 -85 -78 -90 -82 -113 -90 -12 -3 -21 -11 -21 -16 0 -17 -25 -9 -38 12
-11 17 -11 26 0 50 7 16 17 29 21 29 5 0 22 14 39 30 16 17 36 30 43 30 8 0
18 6 22 14 17 28 90 36 100 10z"/>
<path d="M4080 7730 c0 -6 -4 -9 -9 -5 -14 8 -62 -17 -57 -29 3 -6 10 -31 17
-54 6 -24 18 -46 25 -49 8 -3 14 -12 14 -19 0 -8 8 -18 18 -21 9 -4 23 -13 30
-20 7 -7 22 -13 32 -13 10 0 22 -4 25 -10 10 -17 71 -11 87 8 25 28 27 47 14
104 -14 61 -43 97 -84 103 -88 14 -112 15 -112 5z m154 -94 c12 -48 -19 -86
-69 -85 l-30 1 33 9 c32 10 36 16 32 56 -3 44 24 59 34 19z m-88 0 c20 -20 18
-34 -7 -41 -27 -9 -43 7 -34 34 7 25 21 27 41 7z m114 -90 c0 -8 -7 -16 -15
-20 -15 -5 -21 14 -8 27 11 12 23 8 23 -7z"/>
<path d="M4630 7466 c-41 -11 -110 -59 -110 -77 0 -16 78 -83 120 -101 47 -21
91 -19 158 5 29 10 33 15 27 37 -3 14 -6 35 -6 48 1 12 -5 22 -13 22 -8 0 -17
11 -20 25 -5 19 -18 28 -58 40 -28 8 -52 15 -52 14 -1 0 -21 -6 -46 -13z m98
-65 c6 -40 -7 -70 -33 -77 -14 -3 -25 -11 -25 -17 0 -6 -3 -7 -7 -4 -3 4 4 17
16 28 19 18 21 27 16 61 -6 35 -5 39 11 36 11 -2 20 -13 22 -27z m-161 -23
c-3 -8 -6 -5 -6 6 -1 11 2 17 5 13 3 -3 4 -12 1 -19z m87 -3 c7 -18 -3 -45
-16 -45 -15 0 -38 27 -38 44 0 21 46 21 54 1z m103 -47 c-3 -8 -6 -5 -6 6 -1
11 2 17 5 13 3 -3 4 -12 1 -19z"/>
<path d="M4287 7398 c-3 -11 1 -34 9 -51 13 -25 14 -34 3 -53 -10 -19 -21 -24
-53 -24 -35 0 -46 5 -70 35 -31 37 -51 38 -40 2 11 -38 33 -54 99 -72 36 -9
65 -21 65 -26 0 -5 6 -9 13 -9 7 0 20 -9 30 -20 18 -22 66 -27 98 -10 32 18
22 30 -23 28 -53 -3 -88 24 -88 64 0 23 8 31 44 48 25 11 50 20 57 20 6 0 8 7
5 16 -3 9 -6 18 -6 20 0 2 -7 4 -15 4 -8 0 -15 5 -15 10 0 6 -9 10 -19 10 -11
0 -26 7 -35 15 -22 22 -53 19 -59 -7z"/>
<path d="M571 6875 c-1 -50 13 -140 41 -268 l21 -97 -31 -38 c-57 -67 -179
-255 -235 -362 -69 -131 -120 -259 -153 -393 -35 -137 -44 -395 -20 -534 21
-124 69 -269 123 -378 47 -93 139 -235 154 -235 4 0 11 -9 14 -20 7 -22 102
-120 116 -120 5 0 9 -7 9 -15 0 -9 33 -49 73 -90 106 -108 137 -146 137 -167
0 -10 4 -18 8 -18 23 0 54 -268 34 -293 -5 -7 -13 -26 -16 -44 -4 -17 -14 -34
-22 -37 -8 -3 -14 -11 -14 -17 0 -31 -96 -89 -147 -89 -7 0 -13 -5 -13 -11 0
-13 -83 -7 -150 10 -50 13 -130 50 -145 67 -5 6 -26 22 -45 35 -47 31 -60 45
-60 61 0 8 -4 18 -9 24 -5 5 -11 24 -13 43 -2 19 -9 37 -17 39 -11 4 -12 -6
-6 -54 4 -33 8 -102 10 -156 3 -104 13 -187 24 -203 4 -5 13 -30 20 -54 7 -24
18 -50 24 -57 28 -32 37 -44 37 -51 0 -5 18 -24 41 -43 22 -19 49 -42 59 -52
10 -9 29 -19 42 -23 12 -4 25 -11 28 -15 9 -13 144 -51 200 -57 62 -6 162 10
186 29 8 7 23 21 32 31 9 9 20 17 24 17 12 0 48 33 48 45 0 6 9 18 20 28 11 9
20 23 20 31 0 8 6 17 13 19 7 3 5 6 -6 6 -9 1 -25 -8 -35 -20 -47 -57 -119
-119 -138 -119 -7 0 -14 -6 -16 -12 -3 -9 -36 -14 -105 -16 -80 -3 -103 -1
-115 12 -9 8 -27 18 -42 22 -14 3 -26 9 -26 13 0 4 -16 13 -35 20 -19 7 -35
16 -35 21 0 5 -10 12 -22 16 -24 7 -78 63 -78 80 0 7 -7 14 -15 18 -8 3 -15
12 -15 21 0 8 -4 15 -9 15 -5 0 -12 13 -16 30 -4 17 -11 30 -16 30 -5 0 -12
18 -15 40 -4 22 -10 40 -15 40 -5 0 -9 14 -9 30 0 17 5 30 10 30 6 0 10 -5 10
-11 0 -14 102 -114 125 -122 8 -4 15 -10 15 -15 0 -5 21 -15 47 -22 27 -8 50
-17 53 -20 3 -4 26 -10 53 -14 38 -6 47 -4 47 8 0 16 -12 21 -72 32 -21 3 -38
10 -38 14 0 5 -13 11 -30 15 -17 4 -30 11 -30 16 0 5 -7 9 -15 9 -9 0 -18 7
-21 15 -4 8 -11 15 -18 15 -14 0 -76 55 -76 68 0 5 -9 19 -20 32 -11 13 -20
29 -20 36 0 7 -6 14 -12 17 -7 2 -10 8 -6 12 4 4 20 -6 35 -24 15 -17 33 -31
39 -31 6 0 21 -9 34 -20 13 -11 29 -20 36 -20 7 0 14 -5 16 -11 2 -5 22 -13
46 -16 23 -3 42 -10 42 -14 0 -5 29 -9 65 -9 36 0 65 4 65 9 0 5 23 11 50 15
28 4 50 11 50 16 0 6 7 10 15 10 9 0 18 7 21 15 4 8 12 15 19 15 20 0 72 51
80 80 4 14 12 28 17 31 6 4 12 36 15 73 3 36 10 66 14 66 12 0 12 27 0 32 -4
2 -11 31 -13 65 -6 59 -5 61 13 45 10 -9 19 -22 19 -29 0 -7 5 -13 10 -13 6 0
16 -12 23 -27 6 -16 17 -32 24 -36 7 -4 13 -14 13 -21 0 -8 7 -16 15 -20 8 -3
15 -12 15 -21 0 -8 4 -15 9 -15 5 0 12 -14 16 -30 4 -17 10 -30 14 -30 4 0 13
-24 21 -52 7 -29 17 -56 22 -59 5 -3 11 -23 15 -45 3 -21 10 -42 15 -45 5 -3
12 -38 15 -77 3 -40 10 -72 14 -72 5 0 9 -49 9 -110 0 -67 -4 -110 -10 -110
-15 0 -12 -29 5 -46 13 -14 15 -14 15 -1 0 9 6 17 12 20 17 5 19 384 2 395 -6
4 -14 28 -18 55 -4 26 -11 47 -16 47 -5 0 -12 16 -16 35 -3 19 -10 35 -15 35
-5 0 -9 11 -9 24 0 14 -6 31 -13 38 -8 7 -20 30 -26 51 -7 20 -16 37 -21 37
-5 0 -12 10 -16 23 -4 12 -17 32 -30 44 -13 12 -24 27 -24 33 0 6 -7 13 -15
16 -8 3 -17 16 -21 27 -3 12 -19 34 -35 49 -16 15 -29 31 -29 35 0 4 -12 19
-25 32 -14 13 -25 26 -25 30 0 4 -11 14 -25 21 -14 7 -25 19 -25 26 0 7 -38
50 -85 97 -47 47 -85 88 -85 91 0 4 -22 29 -50 55 -27 26 -50 51 -50 55 0 4
-16 23 -35 42 -19 18 -35 40 -35 48 0 8 -7 16 -15 20 -8 3 -15 12 -15 20 0 7
-7 16 -15 20 -8 3 -15 12 -15 21 0 8 -4 15 -9 15 -5 0 -15 16 -21 35 -6 19
-15 35 -20 35 -5 0 -11 14 -15 30 -4 17 -11 30 -15 30 -5 0 -12 16 -16 35 -3
19 -10 35 -14 35 -4 0 -10 19 -14 42 -4 23 -11 45 -16 48 -5 3 -15 42 -22 85
-6 44 -17 83 -22 87 -17 11 -15 490 2 495 6 3 12 15 12 28 0 34 22 125 30 125
4 0 10 18 14 40 3 22 11 40 16 40 5 0 12 11 16 25 3 14 10 25 14 25 5 0 11 14
15 30 4 17 10 30 14 30 4 0 13 19 20 42 7 22 18 47 24 54 30 34 37 44 43 68 3
14 10 26 15 26 5 0 14 11 19 25 5 14 14 25 20 25 5 0 10 6 10 13 0 12 9 26 50
74 5 7 10 16 10 20 0 4 12 19 25 32 14 13 25 29 25 37 0 8 7 14 15 14 8 0 15
-7 15 -15 0 -8 4 -15 9 -15 5 0 12 -13 16 -29 3 -16 13 -32 21 -35 8 -3 14
-12 14 -21 0 -8 4 -15 9 -15 5 0 12 -14 16 -31 4 -17 13 -33 20 -36 8 -2 17
-17 20 -33 3 -16 13 -31 21 -34 8 -3 14 -12 14 -21 0 -8 5 -15 10 -15 6 0 10
-7 10 -15 0 -7 6 -18 13 -22 7 -4 19 -24 27 -43 8 -19 20 -39 27 -43 7 -4 13
-12 13 -18 0 -5 11 -20 25 -33 14 -13 25 -28 25 -35 0 -6 5 -11 10 -11 6 0 10
8 10 18 0 21 -22 72 -32 72 -3 0 -9 14 -13 30 -4 17 -11 30 -16 30 -5 0 -9 7
-9 15 0 7 -6 18 -14 22 -7 4 -19 26 -26 47 -12 37 -18 47 -46 79 -6 7 -15 24
-19 37 -4 13 -14 30 -21 38 -8 7 -14 20 -14 28 0 8 -4 14 -9 14 -4 0 -14 20
-21 44 -7 25 -18 47 -26 50 -8 3 -14 12 -14 21 0 8 -4 15 -9 15 -5 0 -12 16
-15 35 -4 19 -11 35 -16 35 -4 0 -11 14 -15 30 -4 17 -10 30 -14 30 -5 0 -14
28 -21 63 -7 34 -17 64 -21 67 -5 3 -12 35 -17 70 -8 53 -10 57 -11 25z"/>
</g>
</svg>
